<svg width="80" height="80" viewBox="0 0 80 80" fill="none" xmlns="http://www.w3.org/2000/svg">
<path d="M25 54C28.3137 54 31 51.3137 31 48C31 44.6863 28.3137 42 25 42C21.6863 42 19 44.6863 19 48C19 51.3137 21.6863 54 25 54Z" fill="black"/>
<path d="M32 57.405C30.8439 55.91 29.1097 55 27.1186 55H22.751C19.6038 55 16.9704 57.405 16.585 60.59L16.007 65.725C15.9427 66.375 16.3281 67.025 16.9704 67.155C19.4753 67.675 22.1729 68 24.9348 68C26.0909 68 27.1828 67.935 28.2747 67.87L28.7885 63.32C29.1097 60.915 30.2658 58.835 32 57.405Z" fill="black"/>
<path d="M55 54C58.3137 54 61 51.3137 61 48C61 44.6863 58.3137 42 55 42C51.6863 42 49 44.6863 49 48C49 51.3137 51.6863 54 55 54Z" fill="black"/>
<path d="M63.4625 60.6181C63.076 57.4171 60.4345 55 57.2775 55H52.8965C50.9637 55 49.1597 55.9146 48 57.4171C49.7395 58.8543 50.8992 60.8794 51.1569 63.2965L51.6724 67.8693C52.7676 68 53.8629 68 55.0226 68C57.7929 68 60.4989 67.7387 63.0116 67.1508C63.6558 67.0201 64.1068 66.3668 63.978 65.7136L63.4625 60.6181Z" fill="black"/>
<path d="M42.255 58H37.8592C34.6917 58 32.0413 60.4171 31.6534 63.5528L31.007 68.7136C30.9424 69.3668 31.3302 70.0201 31.9767 70.1508C34.4977 70.6734 37.2128 71 39.9924 71C42.7721 71 45.4871 70.7387 48.0082 70.1508C48.6547 70.0201 49.1072 69.3668 48.9779 68.7136L48.3315 63.5528C48.0729 60.3518 45.4225 58 42.255 58Z" fill="black"/>
<path d="M40 57C43.3137 57 46 54.3137 46 51C46 47.6863 43.3137 45 40 45C36.6863 45 34 47.6863 34 51C34 54.3137 36.6863 57 40 57Z" fill="black"/>
<path d="M36.1841 35.2116L38.7065 40.2282C39.2239 41.2573 40.7761 41.2573 41.2935 40.2282L43.8159 35.2116C49.1194 33.6037 53 28.7158 53 22.9274C53 15.7884 47.1791 10 40 10C32.8209 10 27 15.7884 27 22.9274C27 28.7158 30.8806 33.5394 36.1841 35.2116ZM40.194 30.3236C39.3532 30.3236 38.6418 29.6162 38.6418 28.7801C38.6418 27.944 39.3532 27.2365 40.194 27.2365C41.0348 27.2365 41.7463 27.944 41.7463 28.7801C41.8109 29.6162 41.0995 30.3236 40.194 30.3236ZM40.0647 15.5311C41.9403 15.5311 43.5572 16.4315 44.3333 17.9751C45.0448 19.4544 44.9154 21.1266 44.01 22.4129C43.4279 23.249 42.7811 23.6992 42.3284 24.0207C41.8109 24.4066 41.6169 24.5353 41.5522 25.3714C41.5522 25.7573 41.2289 26.0145 40.8408 26.0145H39.7413C39.2886 26.0145 38.9652 25.6286 39.0299 25.2427C39.1592 23.3133 39.9353 22.6058 40.9055 21.8983C41.2935 21.6411 41.6169 21.3838 42.005 20.8693C42.393 20.3548 42.393 19.7116 42.1343 19.1328C41.9403 18.7469 41.4229 18.1037 40.1294 18.1037C38.5124 18.1037 37.995 19.1328 37.8657 19.9046C37.801 20.2261 37.4776 20.4834 37.1542 20.4834H35.9901C35.5373 20.4834 35.2139 20.0975 35.2786 19.6473C35.4726 17.5249 37.0249 15.5311 40.0647 15.5311Z" fill="black"/>
</svg>
