<svg width="80" height="80" viewBox="0 0 80 80" fill="none" xmlns="http://www.w3.org/2000/svg">
<path d="M34.1263 60.2215V61.8165C34.1263 63.0696 35.0132 64.0949 36.1772 64.2658L36.5652 65.6899C36.7869 66.4304 37.452 67 38.228 67H41.9417C42.7177 67 43.4383 66.4304 43.6046 65.6899L43.9926 64.2658C45.1566 64.0949 46.0435 63.0696 46.0435 61.8165V60.2215C46.0435 59.4241 45.4337 58.6835 44.5469 58.6835H35.5675C34.736 58.7405 34.1263 59.4241 34.1263 60.2215ZM41.4429 14.481V19.7215C41.4429 20.519 40.8332 21.2025 40.0017 21.2025C39.1703 21.2025 38.5606 20.5759 38.5606 19.7215V14.481C38.5606 13.6835 39.1703 13 40.0017 13C40.8332 13 41.4429 13.6835 41.4429 14.481ZM57.0737 38.7468C57.0737 37.9494 57.6834 37.2658 58.5149 37.2658H63.5589C64.3349 37.2658 65 37.8924 65 38.7468C65 39.6013 64.3903 40.2278 63.5589 40.2278H58.4594C57.7389 40.1709 57.0737 39.5443 57.0737 38.7468ZM16.4446 37.2658H21.5441C22.3201 37.2658 22.9852 37.8924 22.9852 38.7468C22.9852 39.6013 22.3755 40.2278 21.5441 40.2278H16.4446C15.6686 40.2278 15.0035 39.6013 15.0035 38.7468C14.9481 37.8924 15.5578 37.2658 16.4446 37.2658ZM54.136 51.1076L57.7389 54.8101C58.3486 55.4367 58.3486 56.3481 57.7389 56.9177C57.4617 57.2025 57.1292 57.3734 56.7412 57.3734C56.3532 57.3734 56.0206 57.2025 55.7434 56.9177L52.1406 53.2152C51.5309 52.5886 51.5309 51.6772 52.1406 51.1076C52.6394 50.538 53.5263 50.538 54.136 51.1076ZM24.3155 20.519L27.9183 24.2215C28.528 24.8481 28.528 25.7595 27.9183 26.3291C27.5858 26.6139 27.2532 26.7848 26.8652 26.7848C26.4772 26.7848 26.1446 26.6139 25.8675 26.3291L22.2646 22.6266C21.6549 22 21.6549 21.0886 22.2646 20.519C22.8743 19.9494 23.7612 19.8924 24.3155 20.519ZM55.7434 20.519C56.3532 19.8924 57.24 19.8924 57.7943 20.519C58.404 21.1456 58.404 22.057 57.7943 22.6266L54.136 26.3291C53.8589 26.6139 53.5263 26.7848 53.1383 26.7848C52.7503 26.7848 52.4177 26.6139 52.1406 26.3291C51.5309 25.7025 51.5309 24.7911 52.1406 24.2215L55.7434 20.519ZM25.8675 51.1076C26.4772 50.481 27.364 50.481 27.9183 51.1076C28.4726 51.7342 28.528 52.6456 27.9183 53.2152L24.3155 56.9177C24.0383 57.2025 23.7058 57.3734 23.3178 57.3734C22.9298 57.3734 22.5972 57.2025 22.3201 56.9177C21.7103 56.2911 21.7103 55.3797 22.3201 54.8101L25.8675 51.1076ZM26.5881 38.8608C26.5881 42.3924 27.9738 45.9241 30.3572 48.4304C31.7429 49.9114 32.6298 51.7342 32.9069 53.7278C33.184 55.4367 34.6252 56.7468 36.3435 56.7468H43.7709C45.4892 56.7468 46.9303 55.4937 47.2075 53.7278C47.4846 51.7342 48.4269 49.8544 49.7572 48.4304C52.1406 45.8671 53.4709 42.5633 53.5263 39.0316C53.5817 31.3987 47.5955 25.1329 40.2235 25.0759H40.1126C32.6852 25.1329 26.5881 31.2848 26.5881 38.8608ZM41.72 34.8734C41.6646 35.7278 41.6646 36.6392 41.5537 37.4937C41.4983 38.8608 41.3875 40.2278 41.332 41.5949C41.332 41.9937 41.2766 42.4494 41.2766 42.9051C41.2766 43.6456 40.7223 44.2152 40.0017 44.2152C39.2812 44.2152 38.7269 43.6456 38.7269 42.9051C38.6715 40.7975 38.5052 38.6329 38.3943 36.5823C38.3943 36.0127 38.3389 35.443 38.3389 34.8734C38.2835 34.019 38.7823 33.1646 39.6137 33.0506C40.4452 32.8228 41.2766 33.2215 41.6646 34.019C41.72 34.2468 41.72 34.5316 41.72 34.8734ZM38.2835 47.1203C38.2835 46.1519 39.0595 45.3544 40.0017 45.3544C40.944 45.3544 41.72 46.1519 41.72 47.1203C41.72 48.0886 40.944 48.8861 40.0017 48.8861C39.0595 48.8861 38.2835 48.0886 38.2835 47.1203Z" fill="black"/>
</svg>
