<svg width="112" height="47" viewBox="0 0 112 47" fill="none" xmlns="http://www.w3.org/2000/svg">
<path d="M12.1609 8.37649C12.1609 9.84838 11.882 11.0769 11.3241 12.0622C10.778 13.0474 10.0065 13.7833 9.00939 14.27C8.01231 14.7567 6.83717 15 5.48398 15H1.37099V2.28714H5.76886C7.81052 2.28714 9.3833 2.80942 10.4872 3.85399C11.603 4.89856 12.1609 6.40606 12.1609 8.37649ZM8.59988 8.50113C8.59988 6.2102 7.66807 5.06474 5.80447 5.06474H4.80738V12.1868H5.573C6.61757 12.1868 7.38319 11.8841 7.86987 11.2787C8.35654 10.6734 8.59988 9.74749 8.59988 8.50113ZM19.8416 4.97571C20.0315 4.97571 20.2274 4.99352 20.4292 5.02913C20.6309 5.05287 20.7793 5.07067 20.8743 5.08254L20.5716 8.28747C20.4529 8.26373 20.3045 8.23999 20.1265 8.21625C19.9603 8.19251 19.7229 8.18064 19.4143 8.18064C19.1294 8.18064 18.8208 8.22218 18.4884 8.30527C18.156 8.38836 17.8712 8.57235 17.6338 8.85723C17.4082 9.13024 17.2955 9.5635 17.2955 10.157V15H13.8947V5.15376H16.423L16.9572 6.72062H17.1174C17.3904 6.23394 17.7703 5.82442 18.2569 5.49206C18.7555 5.14783 19.2837 4.97571 19.8416 4.97571ZM25.9704 4.97571C27.4067 4.97571 28.5403 5.34962 29.3712 6.09744C30.2021 6.84525 30.6176 7.97291 30.6176 9.48041V10.9938H24.546C24.5698 11.5043 24.7597 11.9256 25.1158 12.258C25.4838 12.5904 26.012 12.7566 26.7005 12.7566C27.3177 12.7566 27.8815 12.6972 28.3919 12.5785C28.9024 12.4598 29.4306 12.2699 29.9766 12.0087V14.448C29.5018 14.6973 28.9795 14.8813 28.4097 15C27.8519 15.1187 27.1456 15.1781 26.2909 15.1781C25.2939 15.1781 24.4036 15.0059 23.6202 14.6617C22.8486 14.3056 22.2373 13.7596 21.7862 13.0236C21.3352 12.2758 21.1096 11.3143 21.1096 10.1392C21.1096 8.96406 21.3114 7.99665 21.715 7.23696C22.1305 6.46541 22.7002 5.89564 23.4243 5.52767C24.1603 5.1597 25.009 4.97571 25.9704 4.97571ZM26.0951 7.29038C25.6915 7.29038 25.3532 7.41502 25.0802 7.66429C24.819 7.91356 24.6647 8.31121 24.6173 8.85723H27.5373C27.5254 8.41804 27.3949 8.05007 27.1456 7.75331C26.9082 7.44469 26.558 7.29038 26.0951 7.29038ZM36.9947 4.97571C38.2411 4.97571 39.2144 5.28434 39.9148 5.90158C40.6151 6.51882 40.9653 7.39721 40.9653 8.53674V15H38.615L37.9562 13.7002H37.885C37.6001 14.0445 37.3152 14.3293 37.0303 14.5549C36.7455 14.7685 36.4131 14.9228 36.0333 15.0178C35.6534 15.1246 35.1905 15.1781 34.6445 15.1781C33.7898 15.1781 33.0776 14.9169 32.5078 14.3946C31.9381 13.8723 31.6532 13.0711 31.6532 11.9909C31.6532 10.9345 32.0152 10.1511 32.7393 9.64066C33.4753 9.13024 34.5376 8.84536 35.9264 8.78601L37.5645 8.7326V8.59015C37.5645 8.15096 37.4577 7.84234 37.244 7.66429C37.0303 7.47437 36.7395 7.37941 36.3716 7.37941C35.9798 7.37941 35.5466 7.45063 35.0718 7.59307C34.597 7.72364 34.1162 7.89575 33.6296 8.10942L32.6503 5.86597C33.2201 5.56922 33.861 5.34962 34.5732 5.20718C35.2973 5.05287 36.1045 4.97571 36.9947 4.97571ZM37.5823 10.6021L36.7989 10.6377C36.1698 10.6615 35.7306 10.7742 35.4813 10.976C35.232 11.166 35.1074 11.439 35.1074 11.7951C35.1074 12.1274 35.1964 12.3767 35.3745 12.5429C35.5525 12.6972 35.7899 12.7744 36.0867 12.7744C36.5021 12.7744 36.8523 12.6438 37.1372 12.3826C37.4339 12.1215 37.5823 11.7832 37.5823 11.3678V10.6021ZM54.9431 4.97571C56.0708 4.97571 56.9314 5.26653 57.5249 5.84817C58.1184 6.41793 58.4151 7.33193 58.4151 8.59015V15H55.0144V9.64066C55.0144 8.89284 54.9135 8.37649 54.7117 8.09161C54.5099 7.79486 54.2131 7.64648 53.8214 7.64648C53.2754 7.64648 52.8956 7.88982 52.6819 8.37649C52.4682 8.8513 52.3614 9.52789 52.3614 10.4063V15H48.9606V9.64066C48.9606 8.92845 48.8657 8.41804 48.6757 8.10942C48.4858 7.80079 48.2009 7.64648 47.8211 7.64648C47.2395 7.64648 46.8418 7.91356 46.6281 8.44771C46.4264 8.97 46.3255 9.71781 46.3255 10.6912V15H42.9247V5.15376H45.4886L45.9872 6.36451H46.0762C46.3373 5.96093 46.7112 5.62857 47.1979 5.36743C47.6965 5.10628 48.3078 4.97571 49.0318 4.97571C49.7559 4.97571 50.3494 5.10035 50.8124 5.34962C51.2872 5.58702 51.6729 5.91939 51.9697 6.34671H52.0765C52.3851 5.90752 52.7828 5.56922 53.2695 5.33182C53.768 5.09441 54.3259 4.97571 54.9431 4.97571Z" fill="#8EEDE6"/>
<path d="M7.03303 21.9223C6.22586 21.9223 5.59081 22.2547 5.12788 22.9194C4.66494 23.5841 4.43348 24.51 4.43348 25.697C4.43348 26.8959 4.65901 27.8099 5.11007 28.439C5.573 29.0562 6.27927 29.3648 7.22888 29.3648C7.78678 29.3648 8.32686 29.2877 8.84915 29.1334C9.3833 28.9791 9.91746 28.7891 10.4516 28.5636V31.4658C9.89372 31.7151 9.31802 31.8932 8.72451 32C8.13101 32.1187 7.50783 32.1781 6.85497 32.1781C5.46617 32.1781 4.33258 31.905 3.45419 31.359C2.58768 30.813 1.94669 30.0533 1.53124 29.08C1.11579 28.0947 0.908061 26.9611 0.908061 25.6792C0.908061 24.3972 1.14546 23.2636 1.62027 22.2784C2.09507 21.2932 2.78947 20.5216 3.70347 19.9637C4.62933 19.394 5.75106 19.1091 7.06864 19.1091C7.68588 19.1091 8.3328 19.1803 9.00939 19.3227C9.68599 19.4652 10.3507 19.6907 11.0036 19.9993L9.95307 22.7057C9.49013 22.4802 9.02126 22.2962 8.54646 22.1538C8.07166 21.9995 7.56718 21.9223 7.03303 21.9223ZM21.783 27.0502C21.783 28.7001 21.3438 29.9702 20.4655 30.8605C19.5871 31.7389 18.3823 32.1781 16.851 32.1781C15.9014 32.1781 15.0586 31.9822 14.3227 31.5905C13.5867 31.1869 13.0051 30.6053 12.5778 29.8456C12.1623 29.074 11.9546 28.1422 11.9546 27.0502C11.9546 25.424 12.3938 24.1717 13.2722 23.2933C14.1506 22.4149 15.3613 21.9757 16.9044 21.9757C17.854 21.9757 18.6909 22.1716 19.415 22.5633C20.1509 22.955 20.7266 23.5307 21.1421 24.2904C21.5694 25.0382 21.783 25.9581 21.783 27.0502ZM15.4088 27.0502C15.4088 27.893 15.5216 28.5399 15.7471 28.9909C15.9726 29.4301 16.3525 29.6497 16.8866 29.6497C17.4089 29.6497 17.7769 29.4301 17.9905 28.9909C18.2161 28.5399 18.3288 27.893 18.3288 27.0502C18.3288 26.2193 18.2161 25.5902 17.9905 25.1628C17.7769 24.7236 17.403 24.504 16.8688 24.504C16.3465 24.504 15.9726 24.7236 15.7471 25.1628C15.5216 25.5902 15.4088 26.2193 15.4088 27.0502ZM29.5233 21.9757C30.5441 21.9757 31.375 22.2665 32.016 22.8482C32.657 23.4179 32.9775 24.3319 32.9775 25.5902V32H29.5767V26.6229C29.5767 25.97 29.4817 25.4774 29.2918 25.145C29.1019 24.8127 28.7992 24.6465 28.3837 24.6465C27.7428 24.6465 27.3095 24.9136 27.084 25.4477C26.8703 25.97 26.7635 26.7178 26.7635 27.6912V32H23.3627V22.1538H25.9266L26.3896 23.4535H26.5142C26.8228 22.9906 27.2264 22.6286 27.7249 22.3674C28.2354 22.1063 28.8348 21.9757 29.5233 21.9757ZM42.2525 28.9731C42.2525 29.5904 42.1101 30.1423 41.8252 30.629C41.5522 31.1157 41.1071 31.4955 40.4898 31.7685C39.8845 32.0415 39.0832 32.1781 38.0861 32.1781C37.3858 32.1781 36.7567 32.1365 36.1988 32.0534C35.6528 31.9822 35.0949 31.8398 34.5251 31.6261V28.9019C35.1542 29.1868 35.7893 29.3945 36.4303 29.5251C37.0712 29.6438 37.5757 29.7031 37.9437 29.7031C38.6796 29.7031 39.0476 29.537 39.0476 29.2046C39.0476 29.0622 38.9883 28.9375 38.8696 28.8307C38.7509 28.7239 38.5372 28.6052 38.2286 28.4746C37.9318 28.344 37.5045 28.166 36.9466 27.9404C36.1276 27.6081 35.5163 27.2164 35.1127 26.7653C34.7091 26.3142 34.5073 25.6851 34.5073 24.8779C34.5073 23.9165 34.8753 23.1924 35.6112 22.7057C36.359 22.2191 37.3443 21.9757 38.5669 21.9757C39.2197 21.9757 39.831 22.0469 40.4008 22.1894C40.9706 22.3318 41.5641 22.5395 42.1813 22.8126L41.2555 25.0026C40.7688 24.7771 40.2762 24.599 39.7776 24.4684C39.2791 24.3379 38.8814 24.2726 38.5847 24.2726C38.0268 24.2726 37.7478 24.4091 37.7478 24.6821C37.7478 24.8127 37.7953 24.9254 37.8903 25.0204C37.9971 25.1035 38.193 25.2103 38.4779 25.3409C38.7627 25.4596 39.1782 25.6258 39.7242 25.8394C40.294 26.0768 40.7628 26.3261 41.1308 26.5872C41.5107 26.8484 41.7896 27.1689 41.9677 27.5487C42.1576 27.9286 42.2525 28.4034 42.2525 28.9731ZM48.6019 29.4895C48.8986 29.4895 49.1776 29.4598 49.4387 29.4005C49.6999 29.3292 49.9669 29.2461 50.2399 29.1512V31.6261C49.872 31.7804 49.4803 31.911 49.0648 32.0178C48.6494 32.1246 48.1211 32.1781 47.4802 32.1781C46.8392 32.1781 46.2753 32.0772 45.7887 31.8754C45.302 31.6736 44.9221 31.3293 44.6491 30.8427C44.388 30.3441 44.2574 29.6497 44.2574 28.7595V24.6999H43.0645V23.3111L44.5779 22.2428L45.4504 20.1774H47.676V22.1538H50.0975V24.6999H47.676V28.528C47.676 29.169 47.9846 29.4895 48.6019 29.4895ZM53.3373 18.1832C53.824 18.1832 54.2454 18.2841 54.6015 18.4859C54.9695 18.6877 55.1535 19.0913 55.1535 19.6967C55.1535 20.2783 54.9695 20.6759 54.6015 20.8896C54.2454 21.0914 53.824 21.1923 53.3373 21.1923C52.8388 21.1923 52.4115 21.0914 52.0554 20.8896C51.7111 20.6759 51.539 20.2783 51.539 19.6967C51.539 19.0913 51.7111 18.6877 52.0554 18.4859C52.4115 18.2841 52.8388 18.1832 53.3373 18.1832ZM55.0288 22.1538V32H51.6281V22.1538H55.0288ZM61.8695 29.4895C62.1662 29.4895 62.4452 29.4598 62.7063 29.4005C62.9675 29.3292 63.2345 29.2461 63.5075 29.1512V31.6261C63.1396 31.7804 62.7479 31.911 62.3324 32.0178C61.917 32.1246 61.3887 32.1781 60.7478 32.1781C60.1068 32.1781 59.5429 32.0772 59.0563 31.8754C58.5696 31.6736 58.1897 31.3293 57.9167 30.8427C57.6556 30.3441 57.525 29.6497 57.525 28.7595V24.6999H56.3321V23.3111L57.8455 22.2428L58.718 20.1774H60.9436V22.1538H63.3651V24.6999H60.9436V28.528C60.9436 29.169 61.2522 29.4895 61.8695 29.4895ZM74.457 22.1538V32H71.8931L71.4657 30.7714H71.2699C70.9613 31.27 70.5399 31.632 70.0057 31.8576C69.4716 32.0712 68.9018 32.1781 68.2964 32.1781C67.6554 32.1781 67.0738 32.0534 66.5515 31.8041C66.0292 31.5549 65.6138 31.1632 65.3052 30.629C65.0084 30.0949 64.86 29.4064 64.86 28.5636V22.1538H68.2608V27.5309C68.2608 28.1719 68.3498 28.6586 68.5279 28.9909C68.7178 29.3233 69.0205 29.4895 69.436 29.4895C70.0769 29.4895 70.5043 29.2343 70.7179 28.7239C70.9435 28.2016 71.0562 27.4478 71.0562 26.4626V22.1538H74.457ZM81.275 29.4895C81.5717 29.4895 81.8507 29.4598 82.1118 29.4005C82.373 29.3292 82.64 29.2461 82.9131 29.1512V31.6261C82.5451 31.7804 82.1534 31.911 81.7379 32.0178C81.3225 32.1246 80.7942 32.1781 80.1533 32.1781C79.5123 32.1781 78.9484 32.0772 78.4618 31.8754C77.9751 31.6736 77.5953 31.3293 77.3222 30.8427C77.0611 30.3441 76.9305 29.6497 76.9305 28.7595V24.6999H75.7376V23.3111L77.251 22.2428L78.1235 20.1774H80.3491V22.1538H82.7706V24.6999H80.3491V28.528C80.3491 29.169 80.6577 29.4895 81.275 29.4895ZM86.0104 18.1832C86.4971 18.1832 86.9185 18.2841 87.2746 18.4859C87.6426 18.6877 87.8266 19.0913 87.8266 19.6967C87.8266 20.2783 87.6426 20.6759 87.2746 20.8896C86.9185 21.0914 86.4971 21.1923 86.0104 21.1923C85.5119 21.1923 85.0846 21.0914 84.7285 20.8896C84.3842 20.6759 84.2121 20.2783 84.2121 19.6967C84.2121 19.0913 84.3842 18.6877 84.7285 18.4859C85.0846 18.2841 85.5119 18.1832 86.0104 18.1832ZM87.7019 22.1538V32H84.3012V22.1538H87.7019ZM99.1185 27.0502C99.1185 28.7001 98.6793 29.9702 97.8009 30.8605C96.9225 31.7389 95.7177 32.1781 94.1865 32.1781C93.2369 32.1781 92.3941 31.9822 91.6581 31.5905C90.9222 31.1869 90.3406 30.6053 89.9132 29.8456C89.4978 29.074 89.2901 28.1422 89.2901 27.0502C89.2901 25.424 89.7293 24.1717 90.6076 23.2933C91.486 22.4149 92.6968 21.9757 94.2399 21.9757C95.1895 21.9757 96.0263 22.1716 96.7504 22.5633C97.4864 22.955 98.0621 23.5307 98.4775 24.2904C98.9048 25.0382 99.1185 25.9581 99.1185 27.0502ZM92.7443 27.0502C92.7443 27.893 92.857 28.5399 93.0826 28.9909C93.3081 29.4301 93.6879 29.6497 94.2221 29.6497C94.7444 29.6497 95.1123 29.4301 95.326 28.9909C95.5515 28.5399 95.6643 27.893 95.6643 27.0502C95.6643 26.2193 95.5515 25.5902 95.326 25.1628C95.1123 24.7236 94.7384 24.504 94.2043 24.504C93.682 24.504 93.3081 24.7236 93.0826 25.1628C92.857 25.5902 92.7443 26.2193 92.7443 27.0502ZM106.859 21.9757C107.88 21.9757 108.71 22.2665 109.351 22.8482C109.992 23.4179 110.313 24.3319 110.313 25.5902V32H106.912V26.6229C106.912 25.97 106.817 25.4774 106.627 25.145C106.437 24.8127 106.135 24.6465 105.719 24.6465C105.078 24.6465 104.645 24.9136 104.419 25.4477C104.206 25.97 104.099 26.7178 104.099 27.6912V32H100.698V22.1538H103.262L103.725 23.4535H103.85C104.158 22.9906 104.562 22.6286 105.06 22.3674C105.571 22.1063 106.17 21.9757 106.859 21.9757Z" fill="#FAD749"/>
<path d="M2.355 44.1429C1.97223 44.1429 1.60568 44.104 1.25535 44.0262C0.911509 43.9483 0.616323 43.851 0.369794 43.7342L0.671468 42.8973C0.872584 42.9817 1.11911 43.0692 1.41106 43.1601C1.70949 43.2509 2.02089 43.2963 2.34527 43.2963C2.66316 43.2963 2.92267 43.2412 3.12378 43.1309C3.3249 43.0141 3.42546 42.8454 3.42546 42.6248C3.42546 42.4237 3.33139 42.2583 3.14325 42.1285C2.95511 41.9988 2.66965 41.8723 2.28688 41.749C1.69651 41.5609 1.24238 41.3468 0.924485 41.1067C0.613079 40.8602 0.457377 40.5066 0.457377 40.046C0.457377 39.6049 0.632542 39.2545 0.982873 38.995C1.33969 38.729 1.87168 38.596 2.57883 38.596C2.90321 38.596 3.20488 38.6252 3.48385 38.6836C3.7693 38.742 3.98988 38.8166 4.14558 38.9074V39.7638C3.97691 39.6859 3.7466 39.6113 3.45465 39.54C3.1692 39.4686 2.87726 39.4329 2.57883 39.4329C2.18957 39.4329 1.9106 39.4913 1.74192 39.6081C1.57973 39.7184 1.49864 39.8514 1.49864 40.0071C1.49864 40.2082 1.59595 40.3639 1.79058 40.4742C1.9917 40.5845 2.32905 40.7207 2.80265 40.8829C3.12703 40.9932 3.41248 41.1165 3.65901 41.2527C3.91203 41.3889 4.1099 41.5609 4.25263 41.7685C4.39536 41.9696 4.46672 42.2291 4.46672 42.547C4.46672 42.8259 4.3986 43.0887 4.26236 43.3352C4.13261 43.5753 3.91203 43.7699 3.60062 43.9191C3.29571 44.0683 2.8805 44.1429 2.355 44.1429ZM3.07665 37.8856C2.65495 37.8856 2.35977 37.8013 2.19109 37.6326C2.02241 37.4575 1.93807 37.2628 1.93807 37.0487C1.93807 36.9449 1.95429 36.8346 1.98673 36.7179C2.01268 36.6011 2.05161 36.5005 2.10351 36.4162L2.93068 36.5427C2.9177 36.5751 2.90473 36.6205 2.89175 36.6789C2.87878 36.7373 2.87229 36.7925 2.87229 36.8444C2.87229 36.9287 2.89824 37.0001 2.95014 37.0585C3.00204 37.1169 3.09287 37.146 3.22262 37.146H5.57762V37.8856H3.07665ZM6.15094 44.0359V41.7003H5.46974V40.9608H7.12408V43.2184H7.23113C7.63336 43.2184 7.93828 43.0725 8.14588 42.7805C8.35348 42.4886 8.45728 42.0118 8.45728 41.35C8.45728 40.6623 8.33402 40.1725 8.08749 39.8806C7.84096 39.5886 7.43549 39.4427 6.87106 39.4427C6.55317 39.4427 6.25474 39.4848 5.97577 39.5692C5.69681 39.6535 5.43406 39.7768 5.18753 39.939V39.0047C5.38864 38.8945 5.64815 38.8004 5.96604 38.7225C6.29042 38.6382 6.644 38.596 7.02677 38.596C7.33168 38.596 7.60092 38.6252 7.83447 38.6836C8.07452 38.742 8.27563 38.8361 8.43782 38.9658C8.57406 38.9139 8.69084 38.8393 8.78815 38.742C8.88547 38.6382 8.93412 38.5084 8.93412 38.3527H9.90727C9.90727 38.6317 9.82293 38.8718 9.65425 39.0729C9.48557 39.2675 9.25526 39.4102 8.96332 39.501C9.33311 39.8838 9.51801 40.5066 9.51801 41.3695C9.51801 42.2129 9.33311 42.8681 8.96332 43.3352C8.60001 43.8023 7.9772 44.0359 7.09489 44.0359H6.15094ZM5.23619 46.0211V45.7681C5.23619 45.3918 5.34323 45.1063 5.55732 44.9117C5.77141 44.7236 6.02443 44.6295 6.31637 44.6295C6.57588 44.6295 6.78348 44.6846 6.93918 44.7949C7.10137 44.9117 7.23437 45.0512 7.33817 45.2134L7.89286 44.6879L8.5546 45.1939V44.4835H9.45962V46.0211H8.50594L7.89286 45.4956L7.3771 46.0211H7.17274C7.10137 45.8589 7.01055 45.7162 6.90026 45.5929C6.79646 45.4761 6.66346 45.4177 6.50127 45.4177C6.34557 45.4177 6.23852 45.4761 6.18013 45.5929C6.12174 45.7097 6.09255 45.8265 6.09255 45.9432V46.0211H5.23619ZM12.9212 44.1429C12.5125 44.1429 12.1459 44.1073 11.8215 44.0359C11.4972 43.958 11.215 43.8737 10.9749 43.7829V41.603H11.9091V43.1795C12 43.2249 12.1362 43.2639 12.3178 43.2963C12.506 43.3287 12.7006 43.345 12.9017 43.345C13.1158 43.345 13.3137 43.3223 13.4953 43.2768C13.677 43.2249 13.823 43.1341 13.9333 43.0044C14.05 42.8746 14.1084 42.6897 14.1084 42.4497C14.1084 42.2096 14.0468 42.0312 13.9235 41.9144C13.8068 41.7977 13.6283 41.7003 13.3883 41.6225C13.1547 41.5446 12.866 41.4571 12.5222 41.3597C12.1329 41.2495 11.8118 41.1392 11.5588 41.0289C11.3058 40.9121 11.1144 40.7726 10.9846 40.6104C10.8614 40.4418 10.7997 40.2212 10.7997 39.9487C10.7997 39.0469 11.5069 38.596 12.9212 38.596C13.3623 38.596 13.7386 38.6317 14.05 38.7031C14.3614 38.7744 14.595 38.8458 14.7507 38.9172V39.7833C14.5755 39.6989 14.3128 39.6178 13.9625 39.54C13.6121 39.4556 13.2358 39.4135 12.8336 39.4135C12.5352 39.4135 12.2951 39.4491 12.1135 39.5205C11.9318 39.5854 11.841 39.7054 11.841 39.8806C11.841 40.0687 11.9643 40.2082 12.2108 40.299C12.4573 40.3834 12.7914 40.4839 13.2131 40.6007C13.57 40.698 13.8911 40.8148 14.1765 40.951C14.462 41.0808 14.6891 41.2624 14.8577 41.496C15.0329 41.7231 15.1205 42.0345 15.1205 42.4302C15.1205 42.774 15.0491 43.0757 14.9064 43.3352C14.7637 43.5882 14.5301 43.7861 14.2057 43.9288C13.8878 44.0716 13.4597 44.1429 12.9212 44.1429ZM17.912 44.1429C17.5292 44.1429 17.1626 44.104 16.8123 44.0262C16.4685 43.9483 16.1733 43.851 15.9268 43.7342L16.2284 42.8973C16.4295 42.9817 16.6761 43.0692 16.968 43.1601C17.2664 43.2509 17.5779 43.2963 17.9022 43.2963C18.2201 43.2963 18.4796 43.2412 18.6807 43.1309C18.8819 43.0141 18.9824 42.8454 18.9824 42.6248C18.9824 42.4237 18.8883 42.2583 18.7002 42.1285C18.5121 41.9988 18.2266 41.8723 17.8438 41.749C17.2535 41.5609 16.7993 41.3468 16.4814 41.1067C16.17 40.8602 16.0143 40.5066 16.0143 40.046C16.0143 39.6049 16.1895 39.2545 16.5398 38.995C16.8967 38.729 17.4286 38.596 18.1358 38.596C18.4602 38.596 18.7618 38.6252 19.0408 38.6836C19.3263 38.742 19.5468 38.8166 19.7025 38.9074V39.7638C19.5339 39.6859 19.3036 39.6113 19.0116 39.54C18.7262 39.4686 18.4342 39.4329 18.1358 39.4329C17.7465 39.4329 17.4676 39.4913 17.2989 39.6081C17.1367 39.7184 17.0556 39.8514 17.0556 40.0071C17.0556 40.2082 17.1529 40.3639 17.3475 40.4742C17.5487 40.5845 17.886 40.7207 18.3596 40.8829C18.684 40.9932 18.9694 41.1165 19.216 41.2527C19.469 41.3889 19.6669 41.5609 19.8096 41.7685C19.9523 41.9696 20.0237 42.2291 20.0237 42.547C20.0237 42.8259 19.9556 43.0887 19.8193 43.3352C19.6896 43.5753 19.469 43.7699 19.1576 43.9191C18.8527 44.0683 18.4375 44.1429 17.912 44.1429ZM22.7492 44.1429C22.3664 44.1429 21.9998 44.104 21.6495 44.0262C21.3057 43.9483 21.0105 43.851 20.764 43.7342L21.0656 42.8973C21.2667 42.9817 21.5133 43.0692 21.8052 43.1601C22.1036 43.2509 22.415 43.2963 22.7394 43.2963C23.0573 43.2963 23.3168 43.2412 23.5179 43.1309C23.7191 43.0141 23.8196 42.8454 23.8196 42.6248C23.8196 42.4237 23.7255 42.2583 23.5374 42.1285C23.3493 41.9988 23.0638 41.8723 22.681 41.749C22.0907 41.5609 21.6365 41.3468 21.3186 41.1067C21.0072 40.8602 20.8515 40.5066 20.8515 40.046C20.8515 39.6049 21.0267 39.2545 21.377 38.995C21.7338 38.729 22.2658 38.596 22.973 38.596C23.2974 38.596 23.599 38.6252 23.878 38.6836C24.1635 38.742 24.384 38.8166 24.5397 38.9074V39.7638C24.3711 39.6859 24.1408 39.6113 23.8488 39.54C23.5634 39.4686 23.2714 39.4329 22.973 39.4329C22.5837 39.4329 22.3048 39.4913 22.1361 39.6081C21.9739 39.7184 21.8928 39.8514 21.8928 40.0071C21.8928 40.2082 21.9901 40.3639 22.1847 40.4742C22.3859 40.5845 22.7232 40.7207 23.1968 40.8829C23.5212 40.9932 23.8066 41.1165 24.0532 41.2527C24.3062 41.3889 24.5041 41.5609 24.6468 41.7685C24.7895 41.9696 24.8609 42.2291 24.8609 42.547C24.8609 42.8259 24.7928 43.0887 24.6565 43.3352C24.5268 43.5753 24.3062 43.7699 23.9948 43.9191C23.6899 44.0683 23.2747 44.1429 22.7492 44.1429ZM28.7249 44.1332C28.2968 44.1332 27.9334 44.0489 27.635 43.8802C27.3431 43.7115 27.142 43.4812 27.0317 43.1893H26.9733L26.8954 44.0359H26.0683V38.7031H27.1095V41.6322C27.1095 42.1448 27.2263 42.5437 27.4599 42.8292C27.6934 43.1082 28.0243 43.2476 28.4525 43.2476C29.1531 43.2476 29.5034 42.8681 29.5034 42.1091V38.7031H30.5447V42.2453C30.5447 42.8811 30.3858 43.3547 30.0679 43.6661C29.75 43.9775 29.3023 44.1332 28.7249 44.1332ZM33.883 44.1332C33.3056 44.1332 32.8548 43.9775 32.5304 43.6661C32.2125 43.3547 32.0535 42.8714 32.0535 42.2161V38.7031H33.0948V42.1091C33.0948 42.8681 33.4484 43.2476 34.1555 43.2476C34.5772 43.2476 34.9016 43.1082 35.1287 42.8292C35.3622 42.5437 35.479 42.1448 35.479 41.6322V38.7031H36.5203V44.0359H35.6931L35.6152 43.2379H35.5568C35.4401 43.4974 35.2422 43.7115 34.9632 43.8802C34.6843 44.0489 34.3242 44.1332 33.883 44.1332ZM35.1875 46.6147C34.7399 46.6147 34.4057 46.5336 34.1852 46.3714C33.9581 46.2092 33.8446 45.9822 33.8446 45.6902V45.5248C33.8446 45.4145 33.8186 45.3464 33.7667 45.3204C33.7083 45.301 33.6305 45.3042 33.5332 45.3302L33.465 44.7268C33.5559 44.6944 33.6564 44.6749 33.7667 44.6684C33.8705 44.6619 33.9516 44.6587 34.01 44.6587C34.2565 44.6587 34.4349 44.7106 34.5452 44.8144C34.649 44.9182 34.7009 45.0642 34.7009 45.2523V45.554C34.7009 45.6773 34.7366 45.7746 34.808 45.8459C34.8793 45.9238 34.9994 45.9627 35.168 45.9627C35.3432 45.9627 35.4665 45.9238 35.5378 45.8459C35.6027 45.7746 35.6352 45.6773 35.6352 45.554V44.6879H36.5207V45.6318C36.5207 46.2871 36.0763 46.6147 35.1875 46.6147ZM43.177 45.7875C42.898 45.7875 42.6191 45.7583 42.3401 45.7C42.0676 45.6481 41.8114 45.567 41.5713 45.4567V44.503C41.7659 44.6327 41.9995 44.7333 42.272 44.8047C42.5509 44.876 42.8267 44.9117 43.0991 44.9117C43.5014 44.9117 43.8258 44.8176 44.0723 44.6295C44.3188 44.4414 44.4421 44.091 44.4421 43.5785V43.3158H44.3934C44.2702 43.5104 44.082 43.6758 43.829 43.8121C43.5825 43.9418 43.2776 44.0067 42.9143 44.0067C42.6028 44.0067 42.3239 43.9483 42.0773 43.8315C41.8308 43.7148 41.6362 43.5299 41.4935 43.2768C41.3572 43.0173 41.2891 42.68 41.2891 42.2648V40.5618C41.2891 40.2698 41.234 40.0428 41.1237 39.8806C41.0199 39.7184 40.8804 39.6049 40.7052 39.54C40.5301 39.4751 40.3419 39.4427 40.1408 39.4427C39.8229 39.4427 39.5602 39.5108 39.3526 39.647C39.1514 39.7833 39.0444 39.9844 39.0314 40.2504L40.0629 40.7369L39.9851 41.2527C39.7386 41.2592 39.5374 41.3306 39.3817 41.4668C39.226 41.5965 39.1482 41.8236 39.1482 42.148V42.9265C39.1482 43.199 39.2812 43.3352 39.5472 43.3352C39.6834 43.3352 39.8034 43.3158 39.9072 43.2768L40.0338 43.9775C39.9105 44.0359 39.7872 44.0748 39.664 44.0943C39.5407 44.1202 39.4142 44.1332 39.2844 44.1332C38.9601 44.1332 38.6843 44.0554 38.4573 43.8996C38.2302 43.7375 38.1167 43.452 38.1167 43.0433V42.1967C38.1167 41.8009 38.2042 41.5122 38.3794 41.3306C38.5546 41.1489 38.7816 41.0191 39.0606 40.9413L39.0703 40.9024L37.9707 40.5034V40.2017C37.9707 39.9033 38.0583 39.634 38.2334 39.394C38.4086 39.1475 38.6584 38.9528 38.9828 38.8101C39.3136 38.6674 39.7029 38.596 40.1505 38.596C40.5463 38.596 40.9063 38.6609 41.2307 38.7907C41.5616 38.9139 41.8243 39.1118 42.019 39.3843C42.2201 39.6568 42.3206 40.0168 42.3206 40.4645V42.0896C42.3206 42.4529 42.4017 42.7157 42.5639 42.8779C42.7326 43.04 42.9499 43.1211 43.2159 43.1211C43.5792 43.1211 43.8679 42.9881 44.082 42.7221C44.3026 42.4497 44.4129 42.0864 44.4129 41.6322V38.7031H45.4542V43.5007C45.4542 44.2727 45.2595 44.8468 44.8703 45.2231C44.481 45.5994 43.9166 45.7875 43.177 45.7875ZM48.2665 44.1332C47.9421 44.1332 47.6696 44.0554 47.449 43.8996C47.2284 43.7375 47.1181 43.452 47.1181 43.0433V39.2967C47.1181 39.1215 47.1311 38.9788 47.1571 38.8685C47.1895 38.7517 47.2414 38.6414 47.3128 38.5376C47.3841 38.4273 47.4847 38.2911 47.6145 38.1289C47.7637 37.9473 47.8772 37.7948 47.955 37.6715C48.0394 37.5418 48.0816 37.4023 48.0816 37.2531C48.0816 36.8898 47.8545 36.7081 47.4004 36.7081C47.2057 36.7081 47.0273 36.7373 46.8651 36.7957C46.7094 36.8476 46.5797 36.906 46.4759 36.9709V36.134C46.5667 36.0821 46.7127 36.0302 46.9138 35.9783C47.1149 35.9199 47.3549 35.8907 47.6339 35.8907C48.088 35.8907 48.4514 35.9913 48.7238 36.1924C48.9963 36.387 49.1326 36.6854 49.1326 37.0877C49.1326 37.3472 49.0807 37.5742 48.9768 37.7689C48.8795 37.9635 48.7692 38.1387 48.646 38.2944C48.5357 38.4371 48.4449 38.5571 48.3735 38.6544C48.3021 38.7452 48.247 38.8426 48.2081 38.9464C48.1756 39.0437 48.1594 39.1702 48.1594 39.3259V42.9168C48.1594 43.1828 48.2859 43.3158 48.5389 43.3158C48.6038 43.3158 48.6654 43.3093 48.7238 43.2963C48.7887 43.2833 48.8471 43.2671 48.899 43.2476L49.0255 43.9775C48.9022 44.0359 48.7757 44.0748 48.646 44.0943C48.5227 44.1202 48.3962 44.1332 48.2665 44.1332ZM51.7588 44.1332C51.1814 44.1332 50.7305 43.9775 50.4061 43.6661C50.0883 43.3547 49.9293 42.8714 49.9293 42.2161V38.7031H50.9706V42.1091C50.9706 42.8681 51.3241 43.2476 52.0313 43.2476C52.453 43.2476 52.7774 43.1082 53.0044 42.8292C53.238 42.5437 53.3548 42.1448 53.3548 41.6322V38.7031H54.396V44.0359H53.5689L53.491 43.2379H53.4326C53.3158 43.4974 53.118 43.7115 52.839 43.8802C52.56 44.0489 52.2 44.1332 51.7588 44.1332ZM56.0411 44.0359V39.7151C56.0411 39.4232 56.0962 39.1994 56.2065 39.0437C56.3168 38.8815 56.4628 38.7679 56.6444 38.7031C56.8326 38.6382 57.0337 38.6058 57.2478 38.6058C57.3581 38.6058 57.4716 38.6187 57.5884 38.6447C57.7052 38.6641 57.809 38.6966 57.8998 38.742L57.7636 39.4816C57.7052 39.4621 57.6435 39.4491 57.5787 39.4427C57.5203 39.4362 57.4716 39.4329 57.4327 39.4329C57.29 39.4329 57.1862 39.4719 57.1213 39.5497C57.0629 39.6211 57.0337 39.7216 57.0337 39.8514V41.1846C57.0337 41.3727 57.0305 41.5771 57.024 41.7977C57.024 42.0182 57.011 42.2842 56.985 42.5956H57.024C57.1537 42.3102 57.2737 42.0734 57.384 41.8852C57.4943 41.6971 57.5916 41.5187 57.676 41.35L58.1528 40.5423H58.6978L59.1649 41.35C59.3076 41.6095 59.4276 41.8301 59.5249 42.0118C59.6223 42.1869 59.7196 42.3815 59.8169 42.5956H59.8655C59.8396 42.2842 59.8234 42.0182 59.8169 41.7977C59.8104 41.5771 59.8072 41.3727 59.8072 41.1846V36.786H60.8095V44.0359H59.8558L58.4448 41.6128H58.4058L56.9948 44.0359H56.0411ZM57.6612 37.8856C57.2395 37.8856 56.9443 37.8013 56.7757 37.6326C56.607 37.4575 56.5226 37.2628 56.5226 37.0487C56.5226 36.9449 56.5356 36.8346 56.5616 36.7179C56.5875 36.6011 56.6264 36.5005 56.6783 36.4162L57.5055 36.5427C57.4925 36.5751 57.4828 36.6205 57.4763 36.6789C57.4698 36.7373 57.4666 36.7925 57.4666 36.8444C57.4666 36.9287 57.4925 37.0001 57.5444 37.0585C57.5963 37.1169 57.6839 37.146 57.8072 37.146H59.2085V37.8856H57.6612ZM64.2557 44.1332C63.6783 44.1332 63.2274 43.9775 62.903 43.6661C62.5851 43.3547 62.4262 42.8714 62.4262 42.2161V38.7031H63.4675V42.1091C63.4675 42.8681 63.821 43.2476 64.5282 43.2476C64.9499 43.2476 65.2743 43.1082 65.5013 42.8292C65.7349 42.5437 65.8517 42.1448 65.8517 41.6322V38.7031H66.8929V44.0359H66.0657L65.9879 43.2379H65.9295C65.8127 43.4974 65.6149 43.7115 65.3359 43.8802C65.0569 44.0489 64.6969 44.1332 64.2557 44.1332ZM70.4453 44.1429C69.7122 44.1429 69.1673 43.958 68.8105 43.5882C68.4536 43.2184 68.2752 42.6411 68.2752 41.8561C68.2752 41.7263 68.2785 41.5803 68.285 41.4181C68.2979 41.2559 68.3142 41.1035 68.3336 40.9608H70.4648V41.7101H69.3165V41.8852C69.3165 42.4367 69.4073 42.8162 69.589 43.0238C69.7771 43.2249 70.0561 43.3255 70.4259 43.3255C70.6919 43.3255 70.9222 43.2736 71.1168 43.1698C71.3179 43.0595 71.4704 42.8681 71.5742 42.5956C71.6845 42.3232 71.7396 41.9339 71.7396 41.4279C71.7396 40.7532 71.6228 40.2569 71.3893 39.939C71.1622 39.6146 70.76 39.4524 70.1826 39.4524C69.8777 39.4524 69.576 39.4946 69.2776 39.5789C68.9856 39.6568 68.7196 39.767 68.4796 39.9098V38.9756C68.6807 38.8718 68.9467 38.7842 69.2776 38.7128C69.6084 38.635 69.962 38.596 70.3383 38.596C70.9222 38.596 71.3958 38.7128 71.7591 38.9464C72.1224 39.1734 72.3884 39.4978 72.5571 39.9195C72.7257 40.3412 72.8101 40.8375 72.8101 41.4084C72.8101 42.2777 72.6284 42.9525 72.2651 43.4325C71.9083 43.9061 71.3017 44.1429 70.4453 44.1429ZM76.0903 44.1429C75.3572 44.1429 74.8123 43.958 74.4554 43.5882C74.0986 43.2184 73.9202 42.6411 73.9202 41.8561C73.9202 41.7263 73.9235 41.5803 73.9299 41.4181C73.9429 41.2559 73.9591 41.1035 73.9786 40.9608H76.1098V41.7101H74.9615V41.8852C74.9615 42.4367 75.0523 42.8162 75.234 43.0238C75.4221 43.2249 75.7011 43.3255 76.0709 43.3255C76.3368 43.3255 76.5672 43.2736 76.7618 43.1698C76.9629 43.0595 77.1154 42.8681 77.2192 42.5956C77.3295 42.3232 77.3846 41.9339 77.3846 41.4279C77.3846 40.7532 77.2678 40.2569 77.0343 39.939C76.8072 39.6146 76.405 39.4524 75.8276 39.4524C75.5227 39.4524 75.221 39.4946 74.9225 39.5789C74.6306 39.6568 74.3646 39.767 74.1246 39.9098V38.9756C74.3257 38.8718 74.5917 38.7842 74.9225 38.7128C75.2534 38.635 75.607 38.596 75.9833 38.596C76.5672 38.596 77.0408 38.7128 77.4041 38.9464C77.7674 39.1734 78.0334 39.4978 78.202 39.9195C78.3707 40.3412 78.4551 40.8375 78.4551 41.4084C78.4551 42.2777 78.2734 42.9525 77.9101 43.4325C77.5533 43.9061 76.9467 44.1429 76.0903 44.1429ZM79.7306 44.0359V42.255C79.7306 41.8463 79.8182 41.5446 79.9934 41.35C80.1685 41.1554 80.3989 41.0191 80.6843 40.9413L80.694 40.9024L79.6333 40.5034V40.2017C79.6333 39.9227 79.7209 39.6632 79.8961 39.4232C80.0777 39.1767 80.3372 38.9788 80.6746 38.8296C81.0119 38.6739 81.4206 38.596 81.9007 38.596C82.3224 38.596 82.7052 38.6641 83.049 38.8004C83.3929 38.9301 83.6654 39.1377 83.8665 39.4232C84.0676 39.7022 84.1682 40.0622 84.1682 40.5034V44.0359H83.1269V40.591C83.1269 40.1887 83.0101 39.9 82.7766 39.7249C82.543 39.5432 82.2446 39.4524 81.8813 39.4524C81.5115 39.4524 81.2228 39.5302 81.0152 39.6859C80.8076 39.8352 80.7005 40.0265 80.694 40.2601L81.6964 40.7467L81.6088 41.2624C81.3623 41.2689 81.1611 41.35 81.0054 41.5057C80.8497 41.6614 80.7719 41.9015 80.7719 42.2258V44.0359H79.7306ZM86.9846 44.1332C86.6667 44.1332 86.3943 44.0554 86.1672 43.8996C85.9466 43.7375 85.8363 43.452 85.8363 43.0433V38.7031H86.8776V42.9168C86.8776 43.0595 86.9068 43.1633 86.9652 43.2282C87.0236 43.2866 87.1241 43.3158 87.2669 43.3158C87.3188 43.3158 87.3771 43.3093 87.442 43.2963C87.5069 43.2833 87.5685 43.2671 87.6269 43.2476L87.7437 43.9775C87.6204 44.0359 87.4939 44.0748 87.3642 44.0943C87.2344 44.1202 87.1079 44.1332 86.9846 44.1332ZM89.7192 44.1332C89.4013 44.1332 89.1288 44.0554 88.9017 43.8996C88.6812 43.7375 88.5709 43.452 88.5709 43.0433V38.7031H89.6121V42.9168C89.6121 43.0595 89.6413 43.1633 89.6997 43.2282C89.7581 43.2866 89.8587 43.3158 90.0014 43.3158C90.0533 43.3158 90.1117 43.3093 90.1765 43.2963C90.2414 43.2833 90.3031 43.2671 90.3614 43.2476L90.4782 43.9775C90.355 44.0359 90.2284 44.0748 90.0987 44.0943C89.9689 44.1202 89.8424 44.1332 89.7192 44.1332ZM93.5541 44.1429C92.7626 44.1429 92.195 43.9613 91.8511 43.598C91.5073 43.2347 91.3353 42.7157 91.3353 42.0409V38.7031H92.3766V42.0701C92.3766 42.4724 92.4707 42.7773 92.6588 42.9849C92.8534 43.186 93.1519 43.2866 93.5541 43.2866C93.9628 43.2866 94.2613 43.186 94.4494 42.9849C94.644 42.7773 94.7413 42.4724 94.7413 42.0701V38.7031H95.7826V42.0409C95.7826 42.7157 95.6074 43.2347 95.2571 43.598C94.9133 43.9613 94.3456 44.1429 93.5541 44.1429ZM99.5222 44.1429C98.7307 44.1429 98.163 43.9613 97.8192 43.598C97.4754 43.2347 97.3034 42.7157 97.3034 42.0409V38.7031H98.3447V42.0701C98.3447 42.4724 98.4388 42.7773 98.6269 42.9849C98.8215 43.186 99.12 43.2866 99.5222 43.2866C99.9309 43.2866 100.229 43.186 100.417 42.9849C100.612 42.7773 100.709 42.4724 100.709 42.0701V38.7031H101.751V42.0409C101.751 42.7157 101.576 43.2347 101.225 43.598C100.881 43.9613 100.314 44.1429 99.5222 44.1429ZM104.722 44.1332C104.404 44.1332 104.131 44.0554 103.904 43.8996C103.683 43.7375 103.573 43.452 103.573 43.0433V38.0316C103.573 37.6683 103.622 37.3991 103.719 37.2239C103.823 37.0487 103.94 36.9125 104.07 36.8152L104.06 36.7763H102.425L102.658 35.988H105.51V36.7763C105.263 36.7763 105.052 36.8541 104.877 37.0098C104.702 37.1655 104.614 37.451 104.614 37.8662V42.9168C104.614 43.0595 104.644 43.1633 104.702 43.2282C104.76 43.2866 104.861 43.3158 105.004 43.3158C105.056 43.3158 105.114 43.3093 105.179 43.2963C105.244 43.2833 105.305 43.2671 105.364 43.2476L105.481 43.9775C105.357 44.0359 105.231 44.0748 105.101 44.0943C104.971 44.1202 104.845 44.1332 104.722 44.1332ZM108.114 44.1332C107.589 44.1332 107.173 44.0132 106.868 43.7731C106.57 43.5331 106.359 43.2087 106.236 42.8C106.113 42.3913 106.051 41.9307 106.051 41.4181C106.051 40.6786 106.155 40.1044 106.362 39.6957C106.57 39.287 106.859 39.0015 107.228 38.8393C107.598 38.6771 108.026 38.596 108.513 38.596C109.324 38.596 109.908 38.7679 110.265 39.1118C110.622 39.4556 110.8 39.9195 110.8 40.5034V44.0359H109.759V40.6007C109.759 40.2244 109.665 39.939 109.476 39.7443C109.295 39.5497 108.98 39.4524 108.533 39.4524C108.254 39.4524 108.007 39.5043 107.793 39.6081C107.579 39.7119 107.41 39.9065 107.287 40.192C107.164 40.4709 107.102 40.8797 107.102 41.4181C107.102 41.775 107.138 42.0928 107.209 42.3718C107.28 42.6508 107.4 42.8714 107.569 43.0336C107.744 43.1957 107.984 43.2768 108.289 43.2768C108.471 43.2768 108.63 43.2541 108.766 43.2087L108.863 44.0067C108.76 44.0521 108.64 44.0845 108.503 44.104C108.367 44.1235 108.237 44.1332 108.114 44.1332ZM107.902 37.8954V37.4477C108.018 37.4218 108.142 37.3861 108.271 37.3407C108.401 37.2888 108.511 37.2239 108.602 37.146C108.687 37.0682 108.729 36.9676 108.729 36.8444C108.729 36.76 108.706 36.6919 108.661 36.64C108.609 36.5881 108.534 36.5622 108.437 36.5622C108.372 36.5622 108.31 36.5751 108.252 36.6011C108.187 36.6205 108.129 36.64 108.077 36.6595L107.882 36.0951C108.012 35.9913 108.161 35.9231 108.33 35.8907C108.498 35.8518 108.638 35.8323 108.748 35.8323C109.014 35.8323 109.225 35.9037 109.381 36.0464C109.53 36.1891 109.605 36.3773 109.605 36.6108C109.605 36.8054 109.54 36.9806 109.41 37.1363H110.967V37.8954H107.902Z" fill="white"/>
</svg>
