<svg width="195" height="82" viewBox="0 0 195 82" fill="none" xmlns="http://www.w3.org/2000/svg">
<path d="M21.173 15.468C21.173 18.0307 20.6873 20.1697 19.716 21.885C18.7653 23.6003 17.422 24.8817 15.686 25.729C13.95 26.5763 11.904 27 9.548 27H2.387V4.866H10.044C13.5987 4.866 16.337 5.77533 18.259 7.594C20.2017 9.41267 21.173 12.0373 21.173 15.468ZM14.973 15.685C14.973 11.6963 13.3507 9.702 10.106 9.702H8.37V22.102H9.703C11.5217 22.102 12.8547 21.575 13.702 20.521C14.5493 19.467 14.973 17.855 14.973 15.685ZM34.5456 9.547C34.8763 9.547 35.2173 9.578 35.5686 9.64C35.92 9.68133 36.1783 9.71233 36.3436 9.733L35.8166 15.313C35.61 15.2717 35.3516 15.2303 35.0416 15.189C34.7523 15.1477 34.339 15.127 33.8016 15.127C33.3056 15.127 32.7683 15.1993 32.1896 15.344C31.611 15.4887 31.115 15.809 30.7016 16.305C30.309 16.7803 30.1126 17.5347 30.1126 18.568V27H24.1916V9.857H28.5936L29.5236 12.585H29.8026C30.278 11.7377 30.9393 11.0247 31.7866 10.446C32.6546 9.84667 33.5743 9.547 34.5456 9.547ZM45.2164 9.547C47.7171 9.547 49.6907 10.198 51.1374 11.5C52.5841 12.802 53.3074 14.7653 53.3074 17.39V20.025H42.7364C42.7777 20.9137 43.1084 21.6473 43.7284 22.226C44.3691 22.8047 45.2887 23.094 46.4874 23.094C47.5621 23.094 48.5437 22.9907 49.4324 22.784C50.3211 22.5773 51.2407 22.2467 52.1914 21.792V26.039C51.3647 26.473 50.4554 26.7933 49.4634 27C48.4921 27.2067 47.2624 27.31 45.7744 27.31C44.0384 27.31 42.4884 27.0103 41.1244 26.411C39.7811 25.791 38.7167 24.8403 37.9314 23.559C37.1461 22.257 36.7534 20.583 36.7534 18.537C36.7534 16.491 37.1047 14.8067 37.8074 13.484C38.5307 12.1407 39.5227 11.1487 40.7834 10.508C42.0647 9.86733 43.5424 9.547 45.2164 9.547ZM45.4334 13.577C44.7307 13.577 44.1417 13.794 43.6664 14.228C43.2117 14.662 42.9431 15.3543 42.8604 16.305H47.9444C47.9237 15.5403 47.6964 14.8997 47.2624 14.383C46.8491 13.8457 46.2394 13.577 45.4334 13.577ZM64.4105 9.547C66.5805 9.547 68.2752 10.0843 69.4945 11.159C70.7138 12.2337 71.3235 13.763 71.3235 15.747V27H67.2315L66.0845 24.737H65.9605C65.4645 25.3363 64.9685 25.8323 64.4725 26.225C63.9765 26.597 63.3978 26.8657 62.7365 27.031C62.0752 27.217 61.2692 27.31 60.3185 27.31C58.8305 27.31 57.5905 26.8553 56.5985 25.946C55.6065 25.0367 55.1105 23.6417 55.1105 21.761C55.1105 19.9217 55.7408 18.5577 57.0015 17.669C58.2828 16.7803 60.1325 16.2843 62.5505 16.181L65.4025 16.088V15.84C65.4025 15.0753 65.2165 14.538 64.8445 14.228C64.4725 13.8973 63.9662 13.732 63.3255 13.732C62.6435 13.732 61.8892 13.856 61.0625 14.104C60.2358 14.3313 59.3988 14.631 58.5515 15.003L56.8465 11.097C57.8385 10.5803 58.9545 10.198 60.1945 9.95C61.4552 9.68133 62.8605 9.547 64.4105 9.547ZM65.4335 19.343L64.0695 19.405C62.9742 19.4463 62.2095 19.6427 61.7755 19.994C61.3415 20.3247 61.1245 20.8 61.1245 21.42C61.1245 21.9987 61.2795 22.4327 61.5895 22.722C61.8995 22.9907 62.3128 23.125 62.8295 23.125C63.5528 23.125 64.1625 22.8977 64.6585 22.443C65.1752 21.9883 65.4335 21.3993 65.4335 20.676V19.343ZM95.6599 9.547C97.6233 9.547 99.1216 10.0533 100.155 11.066C101.188 12.058 101.705 13.6493 101.705 15.84V27H95.7839V17.669C95.7839 16.367 95.6083 15.468 95.2569 14.972C94.9056 14.4553 94.3889 14.197 93.7069 14.197C92.7563 14.197 92.0949 14.6207 91.7229 15.468C91.3509 16.2947 91.1649 17.4727 91.1649 19.002V27H85.2439V17.669C85.2439 16.429 85.0786 15.5403 84.7479 15.003C84.4173 14.4657 83.9213 14.197 83.2599 14.197C82.2473 14.197 81.5549 14.662 81.1829 15.592C80.8316 16.5013 80.6559 17.8033 80.6559 19.498V27H74.7349V9.857H79.1989L80.0669 11.965H80.2219C80.6766 11.2623 81.3276 10.6837 82.1749 10.229C83.0429 9.77433 84.1073 9.547 85.3679 9.547C86.6286 9.547 87.6619 9.764 88.4679 10.198C89.2946 10.6113 89.9663 11.19 90.4829 11.934H90.6689C91.2063 11.1693 91.8986 10.5803 92.7459 10.167C93.6139 9.75367 94.5853 9.547 95.6599 9.547Z" fill="#8EEDE6"/>
<path d="M12.245 38.454C10.8397 38.454 9.734 39.0327 8.928 40.19C8.122 41.3473 7.719 42.9593 7.719 45.026C7.719 47.1133 8.11167 48.7047 8.897 49.8C9.703 50.8747 10.9327 51.412 12.586 51.412C13.5573 51.412 14.4977 51.2777 15.407 51.009C16.337 50.7403 17.267 50.4097 18.197 50.017V55.07C17.2257 55.504 16.2233 55.814 15.19 56C14.1567 56.2067 13.0717 56.31 11.935 56.31C9.517 56.31 7.54333 55.8347 6.014 54.884C4.50533 53.9333 3.38933 52.6107 2.666 50.916C1.94267 49.2007 1.581 47.227 1.581 44.995C1.581 42.763 1.99433 40.7893 2.821 39.074C3.64767 37.3587 4.85667 36.0153 6.448 35.044C8.06 34.052 10.013 33.556 12.307 33.556C13.3817 33.556 14.508 33.68 15.686 33.928C16.864 34.176 18.0213 34.5687 19.158 35.106L17.329 39.818C16.523 39.4253 15.7067 39.105 14.88 38.857C14.0533 38.5883 13.175 38.454 12.245 38.454ZM37.9258 47.382C37.9258 50.2547 37.1612 52.466 35.6318 54.016C34.1025 55.5453 32.0048 56.31 29.3388 56.31C27.6855 56.31 26.2182 55.969 24.9368 55.287C23.6555 54.5843 22.6428 53.5717 21.8988 52.249C21.1755 50.9057 20.8138 49.2833 20.8138 47.382C20.8138 44.5507 21.5785 42.3703 23.1078 40.841C24.6372 39.3117 26.7452 38.547 29.4318 38.547C31.0852 38.547 32.5422 38.888 33.8028 39.57C35.0842 40.252 36.0865 41.2543 36.8098 42.577C37.5538 43.879 37.9258 45.4807 37.9258 47.382ZM26.8278 47.382C26.8278 48.8493 27.0242 49.9757 27.4168 50.761C27.8095 51.5257 28.4708 51.908 29.4008 51.908C30.3102 51.908 30.9508 51.5257 31.3228 50.761C31.7155 49.9757 31.9118 48.8493 31.9118 47.382C31.9118 45.9353 31.7155 44.84 31.3228 44.096C30.9508 43.3313 30.2998 42.949 29.3698 42.949C28.4605 42.949 27.8095 43.3313 27.4168 44.096C27.0242 44.84 26.8278 45.9353 26.8278 47.382ZM51.4021 38.547C53.1794 38.547 54.6261 39.0533 55.7421 40.066C56.8581 41.058 57.4161 42.6493 57.4161 44.84V56H51.4951V46.638C51.4951 45.5013 51.3298 44.6437 50.9991 44.065C50.6684 43.4863 50.1414 43.197 49.4181 43.197C48.3021 43.197 47.5478 43.662 47.1551 44.592C46.7831 45.5013 46.5971 46.8033 46.5971 48.498V56H40.6761V38.857H45.1401L45.9461 41.12H46.1631C46.7004 40.314 47.4031 39.6837 48.2711 39.229C49.1598 38.7743 50.2034 38.547 51.4021 38.547ZM73.5647 50.73C73.5647 51.8047 73.3167 52.7657 72.8207 53.613C72.3454 54.4603 71.5704 55.1217 70.4957 55.597C69.4417 56.0723 68.0467 56.31 66.3107 56.31C65.0914 56.31 63.996 56.2377 63.0247 56.093C62.074 55.969 61.1027 55.721 60.1107 55.349V50.606C61.206 51.102 62.3117 51.4637 63.4277 51.691C64.5437 51.8977 65.422 52.001 66.0627 52.001C67.344 52.001 67.9847 51.7117 67.9847 51.133C67.9847 50.885 67.8814 50.668 67.6747 50.482C67.468 50.296 67.096 50.0893 66.5587 49.862C66.042 49.6347 65.298 49.3247 64.3267 48.932C62.9007 48.3533 61.8364 47.6713 61.1337 46.886C60.431 46.1007 60.0797 45.0053 60.0797 43.6C60.0797 41.926 60.7204 40.6653 62.0017 39.818C63.3037 38.9707 65.019 38.547 67.1477 38.547C68.2844 38.547 69.3487 38.671 70.3407 38.919C71.3327 39.167 72.366 39.5287 73.4407 40.004L71.8287 43.817C70.9814 43.4243 70.1237 43.1143 69.2557 42.887C68.3877 42.6597 67.6954 42.546 67.1787 42.546C66.2074 42.546 65.7217 42.7837 65.7217 43.259C65.7217 43.4863 65.8044 43.6827 65.9697 43.848C66.1557 43.9927 66.4967 44.1787 66.9927 44.406C67.4887 44.6127 68.212 44.902 69.1627 45.274C70.1547 45.6873 70.971 46.1213 71.6117 46.576C72.273 47.0307 72.7587 47.5887 73.0687 48.25C73.3994 48.9113 73.5647 49.738 73.5647 50.73ZM84.6193 51.629C85.136 51.629 85.6217 51.5773 86.0763 51.474C86.531 51.35 86.996 51.2053 87.4713 51.04V55.349C86.8307 55.6177 86.1487 55.845 85.4253 56.031C84.702 56.217 83.7823 56.31 82.6663 56.31C81.5503 56.31 80.5687 56.1343 79.7213 55.783C78.874 55.4317 78.2127 54.8323 77.7373 53.985C77.2827 53.117 77.0553 51.908 77.0553 50.358V43.29H74.9783V40.872L77.6133 39.012L79.1323 35.416H83.0073V38.857H87.2233V43.29H83.0073V49.955C83.0073 51.071 83.5447 51.629 84.6193 51.629ZM92.8641 31.944C93.7115 31.944 94.4451 32.1197 95.0651 32.471C95.7058 32.8223 96.0261 33.525 96.0261 34.579C96.0261 35.5917 95.7058 36.284 95.0651 36.656C94.4451 37.0073 93.7115 37.183 92.8641 37.183C91.9961 37.183 91.2521 37.0073 90.6321 36.656C90.0328 36.284 89.7331 35.5917 89.7331 34.579C89.7331 33.525 90.0328 32.8223 90.6321 32.471C91.2521 32.1197 91.9961 31.944 92.8641 31.944ZM95.8091 38.857V56H89.8881V38.857H95.8091ZM107.719 51.629C108.236 51.629 108.722 51.5773 109.176 51.474C109.631 51.35 110.096 51.2053 110.571 51.04V55.349C109.931 55.6177 109.249 55.845 108.525 56.031C107.802 56.217 106.882 56.31 105.766 56.31C104.65 56.31 103.669 56.1343 102.821 55.783C101.974 55.4317 101.313 54.8323 100.837 53.985C100.383 53.117 100.155 51.908 100.155 50.358V43.29H98.0782V40.872L100.713 39.012L102.232 35.416H106.107V38.857H110.323V43.29H106.107V49.955C106.107 51.071 106.645 51.629 107.719 51.629ZM129.635 38.857V56H125.171L124.427 53.861H124.086C123.549 54.729 122.815 55.3593 121.885 55.752C120.955 56.124 119.963 56.31 118.909 56.31C117.793 56.31 116.78 56.093 115.871 55.659C114.962 55.225 114.238 54.543 113.701 53.613C113.184 52.683 112.926 51.4843 112.926 50.017V38.857H118.847V48.219C118.847 49.335 119.002 50.1823 119.312 50.761C119.643 51.3397 120.17 51.629 120.893 51.629C122.009 51.629 122.753 51.1847 123.125 50.296C123.518 49.3867 123.714 48.0743 123.714 46.359V38.857H129.635ZM141.506 51.629C142.022 51.629 142.508 51.5773 142.963 51.474C143.417 51.35 143.882 51.2053 144.358 51.04V55.349C143.717 55.6177 143.035 55.845 142.312 56.031C141.588 56.217 140.669 56.31 139.553 56.31C138.437 56.31 137.455 56.1343 136.608 55.783C135.76 55.4317 135.099 54.8323 134.624 53.985C134.169 53.117 133.942 51.908 133.942 50.358V43.29H131.865V40.872L134.5 39.012L136.019 35.416H139.894V38.857H144.11V43.29H139.894V49.955C139.894 51.071 140.431 51.629 141.506 51.629ZM149.75 31.944C150.598 31.944 151.331 32.1197 151.951 32.471C152.592 32.8223 152.912 33.525 152.912 34.579C152.912 35.5917 152.592 36.284 151.951 36.656C151.331 37.0073 150.598 37.183 149.75 37.183C148.882 37.183 148.138 37.0073 147.518 36.656C146.919 36.284 146.619 35.5917 146.619 34.579C146.619 33.525 146.919 32.8223 147.518 32.471C148.138 32.1197 148.882 31.944 149.75 31.944ZM152.695 38.857V56H146.774V38.857H152.695ZM172.572 47.382C172.572 50.2547 171.808 52.466 170.278 54.016C168.749 55.5453 166.651 56.31 163.985 56.31C162.332 56.31 160.865 55.969 159.583 55.287C158.302 54.5843 157.289 53.5717 156.545 52.249C155.822 50.9057 155.46 49.2833 155.46 47.382C155.46 44.5507 156.225 42.3703 157.754 40.841C159.284 39.3117 161.392 38.547 164.078 38.547C165.732 38.547 167.189 38.888 168.449 39.57C169.731 40.252 170.733 41.2543 171.456 42.577C172.2 43.879 172.572 45.4807 172.572 47.382ZM161.474 47.382C161.474 48.8493 161.671 49.9757 162.063 50.761C162.456 51.5257 163.117 51.908 164.047 51.908C164.957 51.908 165.597 51.5257 165.969 50.761C166.362 49.9757 166.558 48.8493 166.558 47.382C166.558 45.9353 166.362 44.84 165.969 44.096C165.597 43.3313 164.946 42.949 164.016 42.949C163.107 42.949 162.456 43.3313 162.063 44.096C161.671 44.84 161.474 45.9353 161.474 47.382ZM186.049 38.547C187.826 38.547 189.273 39.0533 190.389 40.066C191.505 41.058 192.063 42.6493 192.063 44.84V56H186.142V46.638C186.142 45.5013 185.976 44.6437 185.646 44.065C185.315 43.4863 184.788 43.197 184.065 43.197C182.949 43.197 182.194 43.662 181.802 44.592C181.43 45.5013 181.244 46.8033 181.244 48.498V56H175.323V38.857H179.787L180.593 41.12H180.81C181.347 40.314 182.05 39.6837 182.918 39.229C183.806 38.7743 184.85 38.547 186.049 38.547Z" fill="#FAD749"/>
<path d="M19.716 21.885L19.0633 21.5154L19.06 21.5214L19.716 21.885ZM15.686 25.729L16.015 26.403L15.686 25.729ZM2.387 27H1.637V27.75H2.387V27ZM2.387 4.866V4.116H1.637V4.866H2.387ZM18.259 7.594L17.7435 8.13878L17.7464 8.14151L18.259 7.594ZM8.37 9.702V8.952H7.62V9.702H8.37ZM8.37 22.102H7.62V22.852H8.37V22.102ZM13.702 20.521L14.2865 20.9909H14.2865L13.702 20.521ZM20.423 15.468C20.423 17.939 19.9545 19.9417 19.0634 21.5154L20.3686 22.2546C21.4201 20.3976 21.923 18.1224 21.923 15.468H20.423ZM19.06 21.5214C18.1827 23.1044 16.9525 24.2762 15.357 25.055L16.015 26.403C17.8915 25.4871 19.348 24.0963 20.372 22.2486L19.06 21.5214ZM15.357 25.055C13.7435 25.8425 11.8146 26.25 9.548 26.25V27.75C11.9934 27.75 14.1565 27.3101 16.015 26.403L15.357 25.055ZM9.548 26.25H2.387V27.75H9.548V26.25ZM3.137 27V4.866H1.637V27H3.137ZM2.387 5.616H10.044V4.116H2.387V5.616ZM10.044 5.616C13.4742 5.616 16.003 6.49182 17.7435 8.13877L18.7745 7.04923C16.671 5.05884 13.7231 4.116 10.044 4.116V5.616ZM17.7464 8.14151C19.4968 9.7802 20.423 12.1814 20.423 15.468H21.923C21.923 11.8932 20.9065 9.04513 18.7716 7.04648L17.7464 8.14151ZM15.723 15.685C15.723 13.6083 15.3038 11.9116 14.3381 10.7245C13.3482 9.50769 11.8896 8.952 10.106 8.952V10.452C11.5671 10.452 12.5419 10.8935 13.1744 11.671C13.8311 12.4782 14.223 13.773 14.223 15.685H15.723ZM10.106 8.952H8.37V10.452H10.106V8.952ZM7.62 9.702V22.102H9.12V9.702H7.62ZM8.37 22.852H9.703V21.352H8.37V22.852ZM9.703 22.852C11.6652 22.852 13.2516 22.2783 14.2865 20.9909L13.1175 20.0511C12.4577 20.8717 11.3781 21.352 9.703 21.352V22.852ZM14.2865 20.9909C15.2888 19.7442 15.723 17.9295 15.723 15.685H14.223C14.223 17.7805 13.8099 19.1898 13.1175 20.0511L14.2865 20.9909ZM35.5686 9.64L35.4383 10.3786L35.4595 10.3823L35.481 10.3849L35.5686 9.64ZM36.3436 9.733L37.0903 9.80352L37.1587 9.07905L36.4366 8.98879L36.3436 9.733ZM35.8166 15.313L35.6695 16.0484L36.4851 16.2115L36.5633 15.3835L35.8166 15.313ZM35.0416 15.189L34.9356 15.9315L34.9425 15.9324L35.0416 15.189ZM32.1896 15.344L32.0077 14.6164L32.1896 15.344ZM30.7016 16.305L30.1255 15.8249L30.1234 15.8273L30.7016 16.305ZM30.1126 27V27.75H30.8626V27H30.1126ZM24.1916 27H23.4416V27.75H24.1916V27ZM24.1916 9.857V9.107H23.4416V9.857H24.1916ZM28.5936 9.857L29.3035 9.61499L29.1303 9.107H28.5936V9.857ZM29.5236 12.585L28.8137 12.827L28.9869 13.335H29.5236V12.585ZM29.8026 12.585V13.335H30.2418L30.4567 12.9519L29.8026 12.585ZM31.7866 10.446L32.2096 11.0654L32.2128 11.0632L31.7866 10.446ZM34.5456 10.297C34.8293 10.297 35.1266 10.3236 35.4383 10.3786L35.699 8.90141C35.3079 8.83241 34.9233 8.797 34.5456 8.797V10.297ZM35.481 10.3849C35.8321 10.4262 36.0881 10.4569 36.2506 10.4772L36.4366 8.98879C36.2685 8.96777 36.0079 8.9365 35.6563 8.89514L35.481 10.3849ZM35.5969 9.66248L35.0699 15.2425L36.5633 15.3835L37.0903 9.80352L35.5969 9.66248ZM35.9637 14.5776C35.7356 14.5319 35.4599 14.4881 35.1407 14.4456L34.9425 15.9324C35.2433 15.9725 35.4844 16.0114 35.6695 16.0484L35.9637 14.5776ZM35.1477 14.4465C34.8055 14.3976 34.3503 14.377 33.8016 14.377V15.877C34.3276 15.877 34.6991 15.8977 34.9356 15.9315L35.1477 14.4465ZM33.8016 14.377C33.2334 14.377 32.6343 14.4597 32.0077 14.6164L32.3715 16.0716C32.9023 15.9389 33.3778 15.877 33.8016 15.877V14.377ZM32.0077 14.6164C31.2618 14.8029 30.6318 15.2173 30.1255 15.8249L31.2778 16.7851C31.5982 16.4007 31.9601 16.1745 32.3715 16.0716L32.0077 14.6164ZM30.1234 15.8273C29.5662 16.5019 29.3626 17.4686 29.3626 18.568H30.8626C30.8626 17.6007 31.0517 17.0588 31.2798 16.7827L30.1234 15.8273ZM29.3626 18.568V27H30.8626V18.568H29.3626ZM30.1126 26.25H24.1916V27.75H30.1126V26.25ZM24.9416 27V9.857H23.4416V27H24.9416ZM24.1916 10.607H28.5936V9.107H24.1916V10.607ZM27.8837 10.099L28.8137 12.827L30.2335 12.343L29.3035 9.61499L27.8837 10.099ZM29.5236 13.335H29.8026V11.835H29.5236V13.335ZM30.4567 12.9519C30.8723 12.2111 31.4522 11.5826 32.2096 11.0653L31.3637 9.82665C30.4263 10.4668 29.6836 11.2642 29.1485 12.2181L30.4567 12.9519ZM32.2128 11.0632C32.9668 10.5425 33.7397 10.297 34.5456 10.297V8.797C33.4089 8.797 32.3425 9.15079 31.3605 9.82883L32.2128 11.0632ZM51.1374 11.5L50.6357 12.0575L51.1374 11.5ZM53.3074 20.025V20.775H54.0574V20.025H53.3074ZM42.7364 20.025V19.275H41.9507L41.9872 20.0598L42.7364 20.025ZM43.7284 22.226L43.2166 22.7744L43.2257 22.7826L43.7284 22.226ZM49.4324 22.784L49.6023 23.5145L49.4324 22.784ZM52.1914 21.792H52.9414V20.6019L51.8678 21.1154L52.1914 21.792ZM52.1914 26.039L52.54 26.703L52.9414 26.4923V26.039H52.1914ZM49.4634 27L49.3104 26.2658L49.3073 26.2664L49.4634 27ZM41.1244 26.411L40.8101 27.0921L40.8227 27.0976L41.1244 26.411ZM37.9314 23.559L37.2892 23.9464L37.292 23.9509L37.9314 23.559ZM37.8074 13.484L37.147 13.1284L37.1451 13.1321L37.8074 13.484ZM40.7834 10.508L40.448 9.83716L40.4436 9.83939L40.7834 10.508ZM43.6664 14.228L43.1607 13.6741L43.1546 13.6797L43.1485 13.6855L43.6664 14.228ZM42.8604 16.305L42.1132 16.24L42.0424 17.055H42.8604V16.305ZM47.9444 16.305V17.055H48.715L48.6941 16.2847L47.9444 16.305ZM47.2624 14.383L46.6679 14.8403L46.6778 14.8531L46.6881 14.8654L47.2624 14.383ZM45.2164 10.297C47.5862 10.297 49.3624 10.9115 50.6357 12.0575L51.6391 10.9425C50.0191 9.48448 47.848 8.797 45.2164 8.797V10.297ZM50.6357 12.0575C51.8746 13.1725 52.5574 14.9004 52.5574 17.39H54.0574C54.0574 14.6303 53.2935 12.4315 51.6391 10.9425L50.6357 12.0575ZM52.5574 17.39V20.025H54.0574V17.39H52.5574ZM53.3074 19.275H42.7364V20.775H53.3074V19.275ZM41.9872 20.0598C42.0372 21.1335 42.4459 22.0549 43.2167 22.7743L44.2401 21.6777C43.7709 21.2397 43.5183 20.6939 43.4856 19.9902L41.9872 20.0598ZM43.2257 22.7826C44.0498 23.527 45.1754 23.844 46.4874 23.844V22.344C45.4021 22.344 44.6883 22.0824 44.2311 21.6694L43.2257 22.7826ZM46.4874 23.844C47.6094 23.844 48.6491 23.7362 49.6023 23.5145L49.2625 22.0535C48.4384 22.2452 47.5147 22.344 46.4874 22.344V23.844ZM49.6023 23.5145C50.5514 23.2938 51.5226 22.9432 52.515 22.4686L51.8678 21.1154C50.9589 21.5501 50.0907 21.8609 49.2625 22.0535L49.6023 23.5145ZM51.4414 21.792V26.039H52.9414V21.792H51.4414ZM51.8428 25.375C51.0828 25.774 50.2401 26.0721 49.3104 26.2658L49.6164 27.7342C50.6708 27.5146 51.6467 27.172 52.54 26.703L51.8428 25.375ZM49.3073 26.2664C48.4059 26.4582 47.2332 26.56 45.7744 26.56V28.06C47.2917 28.06 48.5783 27.9551 49.6195 27.7336L49.3073 26.2664ZM45.7744 26.56C44.1253 26.56 42.6806 26.2756 41.4261 25.7244L40.8227 27.0976C42.2962 27.7451 43.9515 28.06 45.7744 28.06V26.56ZM41.4387 25.73C40.2322 25.1732 39.28 24.3242 38.5709 23.1671L37.292 23.9509C38.1534 25.3565 39.33 26.4088 40.8101 27.092L41.4387 25.73ZM38.5736 23.1716C37.8791 22.0203 37.5034 20.4921 37.5034 18.537H36.0034C36.0034 20.6739 36.413 22.4937 37.2892 23.9464L38.5736 23.1716ZM37.5034 18.537C37.5034 16.5709 37.8418 15.0178 38.4697 13.8359L37.1451 13.1321C36.3677 14.5955 36.0034 16.4111 36.0034 18.537H37.5034ZM38.4678 13.8396C39.1246 12.6196 40.0097 11.7425 41.1232 11.1766L40.4436 9.83939C39.0358 10.5548 37.9368 11.6617 37.1471 13.1284L38.4678 13.8396ZM41.1188 11.1788C42.2798 10.5983 43.6393 10.297 45.2164 10.297V8.797C43.4455 8.797 41.8497 9.13634 40.448 9.83718L41.1188 11.1788ZM45.4334 12.827C44.5622 12.827 43.7874 13.1019 43.1607 13.6741L44.1721 14.7819C44.4961 14.4861 44.8992 14.327 45.4334 14.327V12.827ZM43.1485 13.6855C42.5082 14.2968 42.2038 15.1985 42.1132 16.24L43.6076 16.37C43.6824 15.5101 43.9153 15.0272 44.1843 14.7705L43.1485 13.6855ZM42.8604 17.055H47.9444V15.555H42.8604V17.055ZM48.6941 16.2847C48.6695 15.3745 48.3941 14.5642 47.8367 13.9006L46.6881 14.8654C46.9987 15.2351 47.1779 15.7062 47.1947 16.3253L48.6941 16.2847ZM47.8569 13.9257C47.274 13.1679 46.4229 12.827 45.4334 12.827V14.327C46.0559 14.327 46.4242 14.5234 46.6679 14.8403L47.8569 13.9257ZM69.4945 11.159L69.9904 10.5963L69.4945 11.159ZM71.3235 27V27.75H72.0735V27H71.3235ZM67.2315 27L66.5625 27.3391L66.7708 27.75H67.2315V27ZM66.0845 24.737L66.7535 24.3979L66.5452 23.987H66.0845V24.737ZM65.9605 24.737V23.987H65.6077L65.3827 24.2588L65.9605 24.737ZM64.4725 26.225L64.9225 26.825L64.9303 26.8191L64.938 26.813L64.4725 26.225ZM62.7365 27.031L62.5546 26.3034L62.544 26.306L62.5334 26.309L62.7365 27.031ZM56.5985 25.946L57.1053 25.3931L56.5985 25.946ZM57.0015 17.669L56.5741 17.0527L56.5694 17.056L57.0015 17.669ZM62.5505 16.181L62.526 15.4314L62.5185 15.4317L62.5505 16.181ZM65.4025 16.088L65.4269 16.8376L66.1525 16.8139V16.088H65.4025ZM64.8445 14.228L64.3462 14.7886L64.3552 14.7965L64.3644 14.8042L64.8445 14.228ZM61.0625 14.104L61.2614 14.8272L61.2697 14.8249L61.278 14.8224L61.0625 14.104ZM58.5515 15.003L57.8641 15.303L58.1648 15.9919L58.853 15.6897L58.5515 15.003ZM56.8465 11.097L56.5 10.4318L55.879 10.7553L56.1591 11.397L56.8465 11.097ZM60.1945 9.95L60.3416 10.6855L60.3508 10.6835L60.1945 9.95ZM65.4335 19.343H66.1835V18.5581L65.3994 18.5938L65.4335 19.343ZM64.0695 19.405L64.0978 20.1545L64.1035 20.1542L64.0695 19.405ZM61.7755 19.994L62.23 20.5906L62.2388 20.5839L62.2474 20.5769L61.7755 19.994ZM61.5895 22.722L61.0778 23.2703L61.0879 23.2797L61.0983 23.2888L61.5895 22.722ZM64.6585 22.443L64.163 21.88L64.1573 21.885L64.1517 21.8901L64.6585 22.443ZM64.4105 10.297C66.4599 10.297 67.9565 10.8032 68.9986 11.7217L69.9904 10.5963C68.5938 9.36542 66.7011 8.797 64.4105 8.797V10.297ZM68.9986 11.7217C70.0213 12.623 70.5735 13.9267 70.5735 15.747H72.0735C72.0735 13.5993 71.4063 11.8443 69.9904 10.5963L68.9986 11.7217ZM70.5735 15.747V27H72.0735V15.747H70.5735ZM71.3235 26.25H67.2315V27.75H71.3235V26.25ZM67.9005 26.6609L66.7535 24.3979L65.4155 25.0761L66.5625 27.3391L67.9005 26.6609ZM66.0845 23.987H65.9605V25.487H66.0845V23.987ZM65.3827 24.2588C64.9129 24.8265 64.4537 25.2833 64.007 25.637L64.938 26.813C65.4833 26.3814 66.0161 25.8461 66.5383 25.2152L65.3827 24.2588ZM64.0225 25.625C63.6141 25.9313 63.1286 26.1599 62.5546 26.3034L62.9184 27.7586C63.667 27.5715 64.3389 27.2627 64.9225 26.825L64.0225 25.625ZM62.5334 26.309C61.958 26.4708 61.2247 26.56 60.3185 26.56V28.06C61.3136 28.06 62.1923 27.9632 62.9396 27.753L62.5334 26.309ZM60.3185 26.56C58.9967 26.56 57.9439 26.1619 57.1053 25.3931L56.0917 26.4989C57.2371 27.5488 58.6643 28.06 60.3185 28.06V26.56ZM57.1053 25.3931C56.322 24.6751 55.8605 23.5175 55.8605 21.761H54.3605C54.3605 23.7658 54.891 25.3982 56.0917 26.4989L57.1053 25.3931ZM55.8605 21.761C55.8605 20.112 56.4123 19.0019 57.4336 18.282L56.5694 17.056C55.0693 18.1134 54.3605 19.7313 54.3605 21.761H55.8605ZM57.4289 18.2853C58.546 17.5105 60.2342 17.0307 62.5825 16.9303L62.5185 15.4317C60.0308 15.538 58.0197 16.0501 56.5741 17.0527L57.4289 18.2853ZM62.5749 16.9306L65.4269 16.8376L65.3781 15.3384L62.526 15.4314L62.5749 16.9306ZM66.1525 16.088V15.84H64.6525V16.088H66.1525ZM66.1525 15.84C66.1525 14.9812 65.9464 14.17 65.3246 13.6518L64.3644 14.8042C64.4866 14.906 64.6525 15.1695 64.6525 15.84H66.1525ZM65.3428 13.6674C64.7977 13.183 64.0956 12.982 63.3255 12.982V14.482C63.8367 14.482 64.1472 14.6117 64.3462 14.7886L65.3428 13.6674ZM63.3255 12.982C62.5541 12.982 61.7259 13.1219 60.847 13.3856L61.278 14.8224C62.0524 14.5901 62.7328 14.482 63.3255 14.482V12.982ZM60.8636 13.3808C59.9993 13.6185 59.128 13.9308 58.25 14.3163L58.853 15.6897C59.6696 15.3312 60.4724 15.0441 61.2614 14.8272L60.8636 13.3808ZM59.2389 14.703L57.5339 10.797L56.1591 11.397L57.8641 15.303L59.2389 14.703ZM57.1929 11.7622C58.1146 11.2822 59.1621 10.9213 60.3416 10.6854L60.0474 9.21456C58.7469 9.47467 57.5624 9.87849 56.5 10.4318L57.1929 11.7622ZM60.3508 10.6835C61.551 10.4277 62.9028 10.297 64.4105 10.297V8.797C62.8181 8.797 61.3593 8.93492 60.0382 9.21647L60.3508 10.6835ZM65.3994 18.5938L64.0354 18.6558L64.1035 20.1542L65.4675 20.0922L65.3994 18.5938ZM64.0412 18.6555C62.9156 18.698 61.9374 18.898 61.3036 19.4111L62.2474 20.5769C62.4815 20.3874 63.0328 20.1947 64.0978 20.1545L64.0412 18.6555ZM61.321 19.3974C60.6736 19.8906 60.3745 20.6023 60.3745 21.42H61.8745C61.8745 20.9977 62.0094 20.7587 62.23 20.5906L61.321 19.3974ZM60.3745 21.42C60.3745 22.128 60.5666 22.7932 61.0778 23.2703L62.1012 22.1737C61.9924 22.0721 61.8745 21.8693 61.8745 21.42H60.3745ZM61.0983 23.2888C61.5772 23.7038 62.1807 23.875 62.8295 23.875V22.375C62.445 22.375 62.2218 22.2775 62.0807 22.1552L61.0983 23.2888ZM62.8295 23.875C63.7251 23.875 64.52 23.5873 65.1653 22.9959L64.1517 21.8901C63.8049 22.208 63.3805 22.375 62.8295 22.375V23.875ZM65.154 23.006C65.8416 22.4009 66.1835 21.6024 66.1835 20.676H64.6835C64.6835 21.1963 64.5087 21.5757 64.163 21.88L65.154 23.006ZM66.1835 20.676V19.343H64.6835V20.676H66.1835ZM100.155 11.066L99.63 11.6017L99.6355 11.607L100.155 11.066ZM101.705 27V27.75H102.455V27H101.705ZM95.7839 27H95.0339V27.75H95.7839V27ZM95.2569 14.972L94.6367 15.3937L94.6408 15.3997L94.6449 15.4055L95.2569 14.972ZM91.7229 15.468L92.4069 15.7758L92.4097 15.7695L91.7229 15.468ZM91.1649 27V27.75H91.9149V27H91.1649ZM85.2439 27H84.4939V27.75H85.2439V27ZM81.1829 15.592L80.4865 15.3134L80.4833 15.3217L81.1829 15.592ZM80.6559 27V27.75H81.4059V27H80.6559ZM74.7349 27H73.9849V27.75H74.7349V27ZM74.7349 9.857V9.107H73.9849V9.857H74.7349ZM79.1989 9.857L79.8924 9.57144L79.7012 9.107H79.1989V9.857ZM80.0669 11.965L79.3734 12.2506L79.5647 12.715H80.0669V11.965ZM80.2219 11.965V12.715H80.63L80.8516 12.3724L80.2219 11.965ZM82.1749 10.229L81.8269 9.56459L81.8203 9.56813L82.1749 10.229ZM88.4679 10.198L88.1124 10.8584L88.1224 10.8637L88.1325 10.8688L88.4679 10.198ZM90.4829 11.934L89.8669 12.3618L90.0907 12.684H90.4829V11.934ZM90.6689 11.934V12.684H91.0586L91.2826 12.3652L90.6689 11.934ZM92.7459 10.167L92.4235 9.48982L92.4171 9.49292L92.7459 10.167ZM95.6599 10.297C97.4987 10.297 98.7809 10.7695 99.63 11.6017L100.68 10.5303C99.4623 9.33715 97.7478 8.797 95.6599 8.797V10.297ZM99.6355 11.607C100.459 12.3977 100.955 13.7469 100.955 15.84H102.455C102.455 13.5518 101.917 11.7183 100.674 10.525L99.6355 11.607ZM100.955 15.84V27H102.455V15.84H100.955ZM101.705 26.25H95.7839V27.75H101.705V26.25ZM96.5339 27V17.669H95.0339V27H96.5339ZM96.5339 17.669C96.5339 16.3541 96.3671 15.2418 95.869 14.5385L94.6449 15.4055C94.8494 15.6942 95.0339 16.3799 95.0339 17.669H96.5339ZM95.8771 14.5503C95.3718 13.8071 94.6105 13.447 93.7069 13.447V14.947C94.1674 14.947 94.4395 15.1036 94.6367 15.3937L95.8771 14.5503ZM93.7069 13.447C93.1186 13.447 92.5681 13.5791 92.0934 13.8832C91.6173 14.1882 91.2709 14.632 91.0362 15.1665L92.4097 15.7695C92.547 15.4566 92.7173 15.265 92.9025 15.1463C93.0891 15.0267 93.3446 14.947 93.7069 14.947V13.447ZM91.039 15.1602C90.6034 16.1282 90.4149 17.4298 90.4149 19.002H91.9149C91.9149 17.5156 92.0985 16.4611 92.4069 15.7758L91.039 15.1602ZM90.4149 19.002V27H91.9149V19.002H90.4149ZM91.1649 26.25H85.2439V27.75H91.1649V26.25ZM85.9939 27V17.669H84.4939V27H85.9939ZM85.9939 17.669C85.9939 16.4011 85.832 15.3335 85.3867 14.6099L84.1092 15.3961C84.3253 15.7472 84.4939 16.4569 84.4939 17.669H85.9939ZM85.3867 14.6099C84.9117 13.8381 84.1665 13.447 83.2599 13.447V14.947C83.6761 14.947 83.9228 15.0932 84.1092 15.3961L85.3867 14.6099ZM83.2599 13.447C82.637 13.447 82.0572 13.5913 81.563 13.9231C81.0683 14.2554 80.7172 14.737 80.4866 15.3135L81.8793 15.8705C82.0207 15.517 82.2018 15.3011 82.3994 15.1684C82.5975 15.0352 82.8703 14.947 83.2599 14.947V13.447ZM80.4833 15.3217C80.0828 16.3585 79.9059 17.7689 79.9059 19.498H81.4059C81.4059 17.8378 81.5805 16.6442 81.8825 15.8623L80.4833 15.3217ZM79.9059 19.498V27H81.4059V19.498H79.9059ZM80.6559 26.25H74.7349V27.75H80.6559V26.25ZM75.4849 27V9.857H73.9849V27H75.4849ZM74.7349 10.607H79.1989V9.107H74.7349V10.607ZM78.5054 10.1426L79.3734 12.2506L80.7605 11.6794L79.8924 9.57144L78.5054 10.1426ZM80.0669 12.715H80.2219V11.215H80.0669V12.715ZM80.8516 12.3724C81.2278 11.7911 81.777 11.2937 82.5296 10.8899L81.8203 9.56813C80.8782 10.0737 80.1254 10.7336 79.5923 11.5576L80.8516 12.3724ZM82.5229 10.8934C83.2572 10.5088 84.1948 10.297 85.3679 10.297V8.797C84.0198 8.797 82.8287 9.03991 81.8269 9.56463L82.5229 10.8934ZM85.3679 10.297C86.549 10.297 87.4491 10.5012 88.1124 10.8584L88.8235 9.53764C87.8748 9.02681 86.7082 8.797 85.3679 8.797V10.297ZM88.1325 10.8688C88.8492 11.2271 89.4235 11.7232 89.8669 12.3618L91.099 11.5062C90.5091 10.6568 89.7401 9.99553 88.8034 9.52718L88.1325 10.8688ZM90.4829 12.684H90.6689V11.184H90.4829V12.684ZM91.2826 12.3652C91.7464 11.7052 92.3403 11.1993 93.0748 10.8411L92.4171 9.49292C91.4569 9.96133 90.6662 10.6334 90.0553 11.5028L91.2826 12.3652ZM93.0684 10.8441C93.8244 10.4842 94.6836 10.297 95.6599 10.297V8.797C94.487 8.797 93.4035 9.02317 92.4235 9.48985L93.0684 10.8441ZM8.928 40.19L8.31255 39.7614L8.928 40.19ZM8.897 49.8L8.28748 50.237L8.29217 50.2436L8.297 50.25L8.897 49.8ZM15.407 51.009L15.1988 50.2885L15.1945 50.2897L15.407 51.009ZM18.197 50.017H18.947V48.8862L17.9053 49.3261L18.197 50.017ZM18.197 55.07L18.503 55.7548L18.947 55.5564V55.07H18.197ZM15.19 56L15.0571 55.2619L15.05 55.2631L15.0429 55.2646L15.19 56ZM6.014 54.884L5.61415 55.5185L5.61805 55.521L6.014 54.884ZM2.666 50.916L1.97492 51.2074L1.97621 51.2104L2.666 50.916ZM2.821 39.074L3.49663 39.3996L2.821 39.074ZM6.448 35.044L6.83875 35.6842L6.84107 35.6827L6.448 35.044ZM15.686 33.928L15.5315 34.6619H15.5315L15.686 33.928ZM19.158 35.106L19.8572 35.3774L20.1099 34.7264L19.4785 34.4279L19.158 35.106ZM17.329 39.818L17.0005 40.4922L17.7332 40.8492L18.0282 40.0894L17.329 39.818ZM14.88 38.857L14.6482 39.5703L14.6563 39.5729L14.6645 39.5754L14.88 38.857ZM12.245 37.704C10.5932 37.704 9.25817 38.4036 8.31255 39.7614L9.54346 40.6186C10.2098 39.6618 11.0861 39.204 12.245 39.204V37.704ZM8.31255 39.7614C7.38687 41.0906 6.969 42.8739 6.969 45.026H8.469C8.469 43.0448 8.85713 41.6041 9.54346 40.6186L8.31255 39.7614ZM6.969 45.026C6.969 47.1898 7.37308 48.9617 8.28748 50.237L9.50652 49.363C8.85025 48.4477 8.469 47.0369 8.469 45.026H6.969ZM8.297 50.25C9.2775 51.5573 10.7573 52.162 12.586 52.162V50.662C11.108 50.662 10.1285 50.192 9.497 49.35L8.297 50.25ZM12.586 52.162C13.6275 52.162 14.6395 52.0178 15.6195 51.7283L15.1945 50.2897C14.3558 50.5375 13.4872 50.662 12.586 50.662V52.162ZM15.6152 51.7295C16.5748 51.4523 17.5326 51.1116 18.4887 50.7079L17.9053 49.3261C17.0014 49.7077 16.0992 50.0283 15.1988 50.2885L15.6152 51.7295ZM17.447 50.017V55.07H18.947V50.017H17.447ZM17.891 54.3852C16.9743 54.7949 16.03 55.0867 15.0571 55.2619L15.3229 56.7381C16.4166 56.5413 17.477 56.2131 18.503 55.7548L17.891 54.3852ZM15.0429 55.2646C14.0616 55.4608 13.0261 55.56 11.935 55.56V57.06C13.1172 57.06 14.2517 56.9525 15.3371 56.7354L15.0429 55.2646ZM11.935 55.56C9.61037 55.56 7.78627 55.1026 6.40995 54.247L5.61805 55.521C7.3004 56.5667 9.42363 57.06 11.935 57.06V55.56ZM6.41384 54.2495C5.03863 53.3829 4.0214 52.181 3.35579 50.6216L1.97621 51.2104C2.75726 53.0403 3.97203 54.4838 5.61416 55.5185L6.41384 54.2495ZM3.35707 50.6246C2.67955 49.0179 2.331 47.1464 2.331 44.995H0.831C0.831 47.3076 1.20578 49.3834 1.97493 51.2074L3.35707 50.6246ZM2.331 44.995C2.331 42.8564 2.72666 40.9973 3.49663 39.3996L2.14537 38.7484C1.26201 40.5814 0.831 42.6696 0.831 44.995H2.331ZM3.49663 39.3996C4.26202 37.8114 5.37344 36.5786 6.83875 35.6842L6.05725 34.4038C4.33989 35.4521 3.03331 36.9059 2.14537 38.7484L3.49663 39.3996ZM6.84107 35.6827C8.31202 34.7775 10.1223 34.306 12.307 34.306V32.806C9.90374 32.806 7.80798 33.3265 6.05493 34.4053L6.84107 35.6827ZM12.307 34.306C13.324 34.306 14.3983 34.4234 15.5315 34.6619L15.8405 33.1941C14.6177 32.9366 13.4394 32.806 12.307 32.806V34.306ZM15.5315 34.6619C16.6497 34.8973 17.7514 35.2706 18.8375 35.7841L19.4785 34.4279C18.2912 33.8667 17.0783 33.4547 15.8405 33.1941L15.5315 34.6619ZM18.4588 34.8346L16.6298 39.5466L18.0282 40.0894L19.8572 35.3774L18.4588 34.8346ZM17.6575 39.1438C16.8165 38.734 15.9624 38.3987 15.0955 38.1386L14.6645 39.5754C15.4509 39.8113 16.2295 40.1166 17.0005 40.4922L17.6575 39.1438ZM15.1118 38.1437C14.2052 37.8491 13.2482 37.704 12.245 37.704V39.204C13.1018 39.204 13.9015 39.3276 14.6482 39.5703L15.1118 38.1437ZM35.6318 54.016L36.1622 54.5463L36.1657 54.5428L35.6318 54.016ZM24.9368 55.287L24.5762 55.9447L24.5844 55.9491L24.9368 55.287ZM21.8988 52.249L21.2384 52.6046L21.2452 52.6167L21.8988 52.249ZM23.1078 40.841L22.5775 40.3107L23.1078 40.841ZM33.8028 39.57L33.446 40.2297L33.4504 40.2321L33.8028 39.57ZM36.8098 42.577L36.1517 42.9369L36.1587 42.9491L36.8098 42.577ZM27.4168 50.761L26.746 51.0964L26.7497 51.1036L27.4168 50.761ZM31.3228 50.761L30.652 50.4256L30.6484 50.4329L31.3228 50.761ZM31.3228 44.096L30.6484 44.4241L30.6538 44.4352L30.6595 44.4461L31.3228 44.096ZM27.4168 44.096L28.0802 44.4461L28.084 44.4386L27.4168 44.096ZM37.1758 47.382C37.1758 50.1226 36.4489 52.12 35.098 53.4892L36.1657 54.5428C37.8734 52.812 38.6758 50.3867 38.6758 47.382H37.1758ZM35.1015 53.4857C33.7441 54.8431 31.855 55.56 29.3388 55.56V57.06C32.1546 57.06 34.4609 56.2476 36.1622 54.5463L35.1015 53.4857ZM29.3388 55.56C27.7911 55.56 26.4478 55.2416 25.2892 54.6249L24.5844 55.9491C25.9885 56.6964 27.5799 57.06 29.3388 57.06V55.56ZM25.2975 54.6294C24.1438 53.9968 23.2306 53.0868 22.5525 51.8813L21.2452 52.6167C22.0551 54.0565 23.1672 55.1719 24.5762 55.9446L25.2975 54.6294ZM22.5592 51.8934C21.9075 50.6831 21.5638 49.1893 21.5638 47.382H20.0638C20.0638 49.3774 20.4435 51.1283 21.2385 52.6046L22.5592 51.8934ZM21.5638 47.382C21.5638 44.6856 22.289 42.7205 23.6382 41.3713L22.5775 40.3107C20.868 42.0202 20.0638 44.4157 20.0638 47.382H21.5638ZM23.6382 41.3713C24.9945 40.015 26.8931 39.297 29.4318 39.297V37.797C26.5973 37.797 24.2799 38.6083 22.5775 40.3107L23.6382 41.3713ZM29.4318 39.297C30.9798 39.297 32.3107 39.6155 33.446 40.2297L34.1597 38.9103C32.7736 38.1605 31.1905 37.797 29.4318 37.797V39.297ZM33.4504 40.2321C34.5974 40.8426 35.4958 41.7374 36.1518 42.9369L37.4679 42.2171C36.6772 40.7713 35.5709 39.6614 34.1552 38.9079L33.4504 40.2321ZM36.1587 42.9491C36.8228 44.1113 37.1758 45.5768 37.1758 47.382H38.6758C38.6758 45.3845 38.2849 43.6467 37.461 42.2049L36.1587 42.9491ZM26.0778 47.382C26.0778 48.8973 26.2775 50.1593 26.746 51.0964L28.0877 50.4256C27.7709 49.792 27.5778 48.8014 27.5778 47.382H26.0778ZM26.7497 51.1036C27.0033 51.5975 27.3614 51.9985 27.832 52.2705C28.2991 52.5406 28.8326 52.658 29.4008 52.658V51.158C29.0391 51.158 28.7769 51.0842 28.5827 50.972C28.3919 50.8617 28.223 50.6891 28.084 50.4184L26.7497 51.1036ZM29.4008 52.658C29.9612 52.658 30.4881 52.5395 30.9477 52.2653C31.4103 51.9892 31.7566 51.5839 31.9973 51.0891L30.6484 50.4329C30.5171 50.7028 30.357 50.871 30.179 50.9772C29.9979 51.0853 29.7498 51.158 29.4008 51.158V52.658ZM31.9937 51.0964C32.4622 50.1593 32.6618 48.8973 32.6618 47.382H31.1618C31.1618 48.8014 30.9688 49.792 30.652 50.4256L31.9937 51.0964ZM32.6618 47.382C32.6618 45.8896 32.463 44.6495 31.9861 43.7459L30.6595 44.4461C30.968 45.0305 31.1618 45.9811 31.1618 47.382H32.6618ZM31.9973 43.7679C31.755 43.27 31.404 42.8643 30.9354 42.589C30.4708 42.3162 29.9376 42.199 29.3698 42.199V43.699C29.7321 43.699 29.9893 43.773 30.1758 43.8825C30.3581 43.9896 30.5186 44.1573 30.6484 44.4241L31.9973 43.7679ZM29.3698 42.199C28.809 42.199 28.2819 42.3176 27.8198 42.589C27.3552 42.8619 27.0018 43.2625 26.7497 43.7534L28.084 44.4386C28.2246 44.1648 28.3929 43.992 28.5794 43.8825C28.7683 43.7715 29.0214 43.699 29.3698 43.699V42.199ZM26.7535 43.7459C26.2766 44.6495 26.0778 45.8896 26.0778 47.382H27.5778C27.5778 45.9811 27.7717 45.0305 28.0801 44.4461L26.7535 43.7459ZM55.7421 40.066L55.2381 40.6214L55.2438 40.6266L55.7421 40.066ZM57.4161 56V56.75H58.1661V56H57.4161ZM51.4951 56H50.7451V56.75H51.4951V56ZM47.1551 44.592L46.4641 44.3003L46.461 44.308L47.1551 44.592ZM46.5971 56V56.75H47.3471V56H46.5971ZM40.6761 56H39.9261V56.75H40.6761V56ZM40.6761 38.857V38.107H39.9261V38.857H40.6761ZM45.1401 38.857L45.8466 38.6054L45.6691 38.107H45.1401V38.857ZM45.9461 41.12L45.2396 41.3716L45.4171 41.87H45.9461V41.12ZM46.1631 41.12V41.87H46.5645L46.7872 41.536L46.1631 41.12ZM48.2711 39.229L47.9295 38.5613L47.9231 38.5646L48.2711 39.229ZM51.4021 39.297C53.0286 39.297 54.2843 39.7559 55.2381 40.6214L56.2461 39.5106C54.9679 38.3508 53.3303 37.797 51.4021 37.797V39.297ZM55.2438 40.6266C56.1369 41.4204 56.6661 42.7619 56.6661 44.84H58.1661C58.1661 42.5368 57.5794 40.6956 56.2404 39.5054L55.2438 40.6266ZM56.6661 44.84V56H58.1661V44.84H56.6661ZM57.4161 55.25H51.4951V56.75H57.4161V55.25ZM52.2451 56V46.638H50.7451V56H52.2451ZM52.2451 46.638C52.2451 45.4516 52.0766 44.4389 51.6503 43.6929L50.3479 44.4371C50.583 44.8485 50.7451 45.5511 50.7451 46.638H52.2451ZM51.6503 43.6929C51.1728 42.8572 50.3826 42.447 49.4181 42.447V43.947C49.9003 43.947 50.1641 44.1155 50.3479 44.4371L51.6503 43.6929ZM49.4181 42.447C48.7569 42.447 48.1444 42.5851 47.6218 42.9073C47.0939 43.2327 46.7124 43.7124 46.4642 44.3003L47.8461 44.8837C47.9905 44.5416 48.1825 44.3238 48.4089 44.1842C48.6407 44.0413 48.9634 43.947 49.4181 43.947V42.447ZM46.461 44.308C46.0346 45.3502 45.8471 46.7663 45.8471 48.498H47.3471C47.3471 46.8404 47.5316 45.6524 47.8493 44.876L46.461 44.308ZM45.8471 48.498V56H47.3471V48.498H45.8471ZM46.5971 55.25H40.6761V56.75H46.5971V55.25ZM41.4261 56V38.857H39.9261V56H41.4261ZM40.6761 39.607H45.1401V38.107H40.6761V39.607ZM44.4336 39.1086L45.2396 41.3716L46.6526 40.8684L45.8466 38.6054L44.4336 39.1086ZM45.9461 41.87H46.1631V40.37H45.9461V41.87ZM46.7872 41.536C47.2539 40.8359 47.8611 40.2904 48.6191 39.8934L47.9231 38.5646C46.9451 39.0769 46.147 39.7921 45.5391 40.704L46.7872 41.536ZM48.6127 39.8967C49.3764 39.5059 50.2986 39.297 51.4021 39.297V37.797C50.1083 37.797 48.9431 38.0427 47.9295 38.5613L48.6127 39.8967ZM72.8207 53.613L72.1733 53.2341L72.1666 53.2461L72.8207 53.613ZM70.4957 55.597L70.1923 54.9111L70.1874 54.9133L70.4957 55.597ZM63.0247 56.093L63.1352 55.3511L63.1217 55.3493L63.0247 56.093ZM60.1107 55.349H59.3607V55.8688L59.8474 56.0512L60.1107 55.349ZM60.1107 50.606L60.4201 49.9228L59.3607 49.4431V50.606H60.1107ZM63.4277 51.691L63.278 52.426L63.2911 52.4285L63.4277 51.691ZM67.6747 50.482L67.173 51.0395L67.6747 50.482ZM66.5587 49.862L66.2566 50.5486L66.2665 50.5527L66.5587 49.862ZM64.3267 48.932L64.0447 49.627L64.0456 49.6273L64.3267 48.932ZM61.1337 46.886L60.5748 47.3861L61.1337 46.886ZM62.0017 39.818L61.5926 39.1894L61.588 39.1924L62.0017 39.818ZM70.3407 38.919L70.1588 39.6466L70.3407 38.919ZM73.4407 40.004L74.1315 40.296L74.4188 39.6165L73.7441 39.3181L73.4407 40.004ZM71.8287 43.817L71.5134 44.4975L72.2174 44.8237L72.5195 44.109L71.8287 43.817ZM69.2557 42.887L69.0657 43.6125L69.2557 42.887ZM65.9697 43.848L65.4394 44.3783L65.4724 44.4113L65.5092 44.44L65.9697 43.848ZM66.9927 44.406L66.6802 45.0878L66.6921 45.0933L66.7042 45.0983L66.9927 44.406ZM69.1627 45.274L69.4512 44.5817L69.4436 44.5785L69.436 44.5756L69.1627 45.274ZM71.6117 46.576L71.1776 47.1877L71.1868 47.194L71.6117 46.576ZM73.0687 48.25L72.3896 48.5683L72.3936 48.5769L72.3979 48.5854L73.0687 48.25ZM72.8147 50.73C72.8147 51.6845 72.5959 52.5124 72.1734 53.2341L73.468 53.9919C74.0375 53.0189 74.3147 51.9249 74.3147 50.73H72.8147ZM72.1666 53.2461C71.7861 53.9243 71.1505 54.4873 70.1923 54.9111L70.7991 56.2829C71.9902 55.7561 72.9046 54.9964 73.4748 53.9799L72.1666 53.2461ZM70.1874 54.9133C69.2664 55.3286 67.9889 55.56 66.3107 55.56V57.06C68.1045 57.06 69.617 56.816 70.804 56.2807L70.1874 54.9133ZM66.3107 55.56C65.1199 55.56 64.0624 55.4893 63.1352 55.3512L62.9142 56.8348C63.9296 56.986 65.0628 57.06 66.3107 57.06V55.56ZM63.1217 55.3493C62.2335 55.2334 61.3179 55.0007 60.374 54.6468L59.8474 56.0512C60.8875 56.4413 61.9146 56.7046 62.9277 56.8367L63.1217 55.3493ZM60.8607 55.349V50.606H59.3607V55.349H60.8607ZM59.8013 51.2892C60.9449 51.8071 62.104 52.1868 63.278 52.4259L63.5774 50.9561C62.5194 50.7406 61.4671 50.3969 60.4201 49.9228L59.8013 51.2892ZM63.2911 52.4285C64.4234 52.6381 65.3541 52.751 66.0627 52.751V51.251C65.4899 51.251 64.664 51.1572 63.5643 50.9535L63.2911 52.4285ZM66.0627 52.751C66.7364 52.751 67.3456 52.6785 67.8129 52.4675C68.0556 52.3579 68.292 52.1966 68.468 51.9581C68.6504 51.711 68.7347 51.4256 68.7347 51.133H67.2347C67.2347 51.1354 67.2345 51.1264 67.2396 51.1102C67.2449 51.0936 67.2529 51.0785 67.2611 51.0674C67.277 51.0459 67.2731 51.0654 67.1955 51.1005C67.0221 51.1788 66.6703 51.251 66.0627 51.251V52.751ZM68.7347 51.133C68.7347 50.6453 68.5198 50.2336 68.1764 49.9245L67.173 51.0395C67.2143 51.0767 67.2269 51.1002 67.23 51.1067C67.2322 51.1112 67.2347 51.1169 67.2347 51.133H68.7347ZM68.1764 49.9245C67.871 49.6496 67.3997 49.4035 66.8509 49.1713L66.2665 50.5527C66.7923 50.7752 67.0651 50.9424 67.173 51.0395L68.1764 49.9245ZM66.8607 49.1755C66.3336 48.9436 65.5813 48.6302 64.6078 48.2367L64.0456 49.6273C65.0148 50.0191 65.7505 50.3258 66.2566 50.5485L66.8607 49.1755ZM64.6087 48.237C63.2436 47.6831 62.2922 47.056 61.6926 46.3859L60.5748 47.3861C61.3806 48.2867 62.5578 49.0236 64.0447 49.627L64.6087 48.237ZM61.6926 46.3859C61.1491 45.7785 60.8297 44.8834 60.8297 43.6H59.3297C59.3297 45.1273 59.7129 46.4228 60.5748 47.3861L61.6926 46.3859ZM60.8297 43.6C60.8297 42.151 61.3654 41.1379 62.4154 40.4436L61.588 39.1924C60.0753 40.1928 59.3297 41.701 59.3297 43.6H60.8297ZM62.4108 40.4466C63.5537 39.7028 65.1122 39.297 67.1477 39.297V37.797C64.9259 37.797 63.0537 38.2385 61.5926 39.1894L62.4108 40.4466ZM67.1477 39.297C68.2298 39.297 69.2325 39.415 70.1588 39.6466L70.5226 38.1914C69.4649 37.927 68.339 37.797 67.1477 37.797V39.297ZM70.1588 39.6466C71.1036 39.8828 72.0962 40.2294 73.1373 40.6899L73.7441 39.3181C72.6358 38.8279 71.5618 38.4512 70.5226 38.1914L70.1588 39.6466ZM72.7499 39.712L71.1379 43.525L72.5195 44.109L74.1315 40.296L72.7499 39.712ZM72.144 43.1365C71.258 42.7259 70.3585 42.4005 69.4457 42.1615L69.0657 43.6125C69.8889 43.8281 70.7047 44.1228 71.5134 44.4975L72.144 43.1365ZM69.4457 42.1615C68.554 41.9279 67.7897 41.796 67.1787 41.796V43.296C67.601 43.296 68.2214 43.3914 69.0657 43.6125L69.4457 42.1615ZM67.1787 41.796C66.6559 41.796 66.1538 41.8561 65.7563 42.0506C65.5472 42.1529 65.3432 42.3041 65.1929 42.5248C65.0388 42.7511 64.9717 43.0056 64.9717 43.259H66.4717C66.4717 43.2748 66.4653 43.3213 66.4326 43.3693C66.4037 43.4118 66.3819 43.4144 66.4156 43.3979C66.5038 43.3548 66.7301 43.296 67.1787 43.296V41.796ZM64.9717 43.259C64.9717 43.6915 65.1379 44.0768 65.4394 44.3783L66.5 43.3177C66.4792 43.2969 66.4751 43.2861 66.4749 43.2857C66.4745 43.2847 66.4739 43.2831 66.4733 43.2801C66.4727 43.2769 66.4717 43.2702 66.4717 43.259H64.9717ZM65.5092 44.44C65.7703 44.643 66.1821 44.8595 66.6802 45.0878L67.3052 43.7242C66.8113 43.4978 66.5411 43.3423 66.4302 43.256L65.5092 44.44ZM66.7042 45.0983C67.2079 45.3082 67.9373 45.5999 68.8894 45.9724L69.436 44.5756C68.4868 44.2041 67.7695 43.9172 67.2812 43.7137L66.7042 45.0983ZM68.8742 45.9663C69.8322 46.3655 70.5955 46.7745 71.1776 47.1876L72.0458 45.9644C71.3466 45.4682 70.4772 45.0092 69.4512 44.5817L68.8742 45.9663ZM71.1868 47.194C71.7494 47.5808 72.1417 48.0394 72.3896 48.5683L73.7478 47.9317C73.3757 47.1379 72.7966 46.4805 72.0366 45.958L71.1868 47.194ZM72.3979 48.5854C72.6618 49.1133 72.8147 49.8165 72.8147 50.73H74.3147C74.3147 49.6595 74.1369 48.7094 73.7395 47.9146L72.3979 48.5854ZM86.0763 51.474L86.2426 52.2053L86.2582 52.2018L86.2737 52.1976L86.0763 51.474ZM87.4713 51.04H88.2213V49.9851L87.225 50.3316L87.4713 51.04ZM87.4713 55.349L87.7614 56.0406L88.2213 55.8478V55.349H87.4713ZM85.4253 56.031L85.2386 55.3046L85.4253 56.031ZM79.7213 55.783L79.4341 56.4758L79.7213 55.783ZM77.7373 53.985L77.073 54.333L77.078 54.3425L77.0832 54.3519L77.7373 53.985ZM77.0553 43.29H77.8053V42.54H77.0553V43.29ZM74.9783 43.29H74.2283V44.04H74.9783V43.29ZM74.9783 40.872L74.5458 40.2593L74.2283 40.4834V40.872H74.9783ZM77.6133 39.012L78.0459 39.6247L78.2209 39.5012L78.3042 39.3038L77.6133 39.012ZM79.1323 35.416V34.666H78.635L78.4415 35.1242L79.1323 35.416ZM83.0073 35.416H83.7573V34.666H83.0073V35.416ZM83.0073 38.857H82.2573V39.607H83.0073V38.857ZM87.2233 38.857H87.9733V38.107H87.2233V38.857ZM87.2233 43.29V44.04H87.9733V43.29H87.2233ZM83.0073 43.29V42.54H82.2573V43.29H83.0073ZM84.6193 52.379C85.186 52.379 85.7279 52.3223 86.2426 52.2053L85.9101 50.7426C85.5155 50.8323 85.086 50.879 84.6193 50.879V52.379ZM86.2737 52.1976C86.7459 52.0688 87.2273 51.919 87.7177 51.7484L87.225 50.3316C86.7647 50.4917 86.3161 50.6312 85.879 50.7504L86.2737 52.1976ZM86.7213 51.04V55.349H88.2213V51.04H86.7213ZM87.1813 54.6574C86.5766 54.911 85.9293 55.127 85.2386 55.3046L85.6121 56.7574C86.3681 56.563 87.0848 56.3244 87.7614 56.0406L87.1813 54.6574ZM85.2386 55.3046C84.5983 55.4693 83.7471 55.56 82.6663 55.56V57.06C83.8176 57.06 84.8057 56.9647 85.6121 56.7574L85.2386 55.3046ZM82.6663 55.56C81.6281 55.56 80.7474 55.3965 80.0086 55.0902L79.4341 56.4758C80.3899 56.8721 81.4726 57.06 82.6663 57.06V55.56ZM80.0086 55.0902C79.3262 54.8073 78.7897 54.328 78.3914 53.6181L77.0832 54.3519C77.6356 55.3366 78.4218 56.0561 79.4341 56.4758L80.0086 55.0902ZM78.4017 53.637C78.0268 52.9212 77.8053 51.8502 77.8053 50.358H76.3053C76.3053 51.9658 76.5386 53.3128 77.073 54.333L78.4017 53.637ZM77.8053 50.358V43.29H76.3053V50.358H77.8053ZM77.0553 42.54H74.9783V44.04H77.0553V42.54ZM75.7283 43.29V40.872H74.2283V43.29H75.7283ZM75.4109 41.4847L78.0459 39.6247L77.1808 38.3993L74.5458 40.2593L75.4109 41.4847ZM78.3042 39.3038L79.8232 35.7078L78.4415 35.1242L76.9224 38.7202L78.3042 39.3038ZM79.1323 36.166H83.0073V34.666H79.1323V36.166ZM82.2573 35.416V38.857H83.7573V35.416H82.2573ZM83.0073 39.607H87.2233V38.107H83.0073V39.607ZM86.4733 38.857V43.29H87.9733V38.857H86.4733ZM87.2233 42.54H83.0073V44.04H87.2233V42.54ZM82.2573 43.29V49.955H83.7573V43.29H82.2573ZM82.2573 49.955C82.2573 50.6217 82.4174 51.2607 82.8701 51.7307C83.3278 52.2061 83.959 52.379 84.6193 52.379V50.879C84.205 50.879 84.0302 50.7729 83.9506 50.6903C83.8659 50.6023 83.7573 50.4043 83.7573 49.955H82.2573ZM95.0651 32.471L94.6953 33.1236L94.7045 33.1286L95.0651 32.471ZM95.0651 36.656L95.4349 37.3086L95.4417 37.3046L95.0651 36.656ZM90.6321 36.656L90.2366 37.2932L90.2493 37.3011L90.2624 37.3085L90.6321 36.656ZM90.6321 32.471L90.2623 31.8184L90.2528 31.824L90.6321 32.471ZM95.8091 38.857H96.5591V38.107H95.8091V38.857ZM95.8091 56V56.75H96.5591V56H95.8091ZM89.8881 56H89.1381V56.75H89.8881V56ZM89.8881 38.857V38.107H89.1381V38.857H89.8881ZM92.8641 32.694C93.6064 32.694 94.2077 32.8472 94.6954 33.1235L95.4349 31.8185C94.6825 31.3921 93.8165 31.194 92.8641 31.194V32.694ZM94.7045 33.1286C95.0062 33.294 95.2761 33.6637 95.2761 34.579H96.7761C96.7761 33.3863 96.4054 32.3506 95.4258 31.8134L94.7045 33.1286ZM95.2761 34.579C95.2761 35.4349 95.0162 35.8171 94.6885 36.0074L95.4417 37.3046C96.3954 36.7509 96.7761 35.7484 96.7761 34.579H95.2761ZM94.6954 36.0035C94.2077 36.2798 93.6064 36.433 92.8641 36.433V37.933C93.8165 37.933 94.6825 37.7348 95.4349 37.3085L94.6954 36.0035ZM92.8641 36.433C92.0976 36.433 91.487 36.2784 91.0019 36.0035L90.2624 37.3085C91.0173 37.7363 91.8946 37.933 92.8641 37.933V36.433ZM91.0277 36.0188C90.7364 35.838 90.4831 35.4556 90.4831 34.579H88.9831C88.9831 35.7277 89.3292 36.73 90.2366 37.2932L91.0277 36.0188ZM90.4831 34.579C90.4831 33.6426 90.7461 33.2736 91.0114 33.118L90.2528 31.824C89.3195 32.3711 88.9831 33.4073 88.9831 34.579H90.4831ZM91.0019 33.1235C91.487 32.8486 92.0976 32.694 92.8641 32.694V31.194C91.8946 31.194 91.0173 31.3907 90.2624 31.8185L91.0019 33.1235ZM95.0591 38.857V56H96.5591V38.857H95.0591ZM95.8091 55.25H89.8881V56.75H95.8091V55.25ZM90.6381 56V38.857H89.1381V56H90.6381ZM89.8881 39.607H95.8091V38.107H89.8881V39.607ZM109.176 51.474L109.342 52.2053L109.358 52.2018L109.374 52.1976L109.176 51.474ZM110.571 51.04H111.321V49.9851L110.325 50.3316L110.571 51.04ZM110.571 55.349L110.861 56.0406L111.321 55.8478V55.349H110.571ZM108.525 56.031L108.338 55.3046L108.525 56.031ZM102.821 55.783L102.534 56.4758L102.821 55.783ZM100.837 53.985L100.173 54.333L100.178 54.3425L100.183 54.3519L100.837 53.985ZM100.155 43.29H100.905V42.54H100.155V43.29ZM98.0782 43.29H97.3282V44.04H98.0782V43.29ZM98.0782 40.872L97.6457 40.2593L97.3282 40.4834V40.872H98.0782ZM100.713 39.012L101.146 39.6247L101.321 39.5012L101.404 39.3038L100.713 39.012ZM102.232 35.416V34.666H101.735L101.541 35.1242L102.232 35.416ZM106.107 35.416H106.857V34.666H106.107V35.416ZM106.107 38.857H105.357V39.607H106.107V38.857ZM110.323 38.857H111.073V38.107H110.323V38.857ZM110.323 43.29V44.04H111.073V43.29H110.323ZM106.107 43.29V42.54H105.357V43.29H106.107ZM107.719 52.379C108.286 52.379 108.828 52.3223 109.342 52.2053L109.01 50.7426C108.615 50.8323 108.186 50.879 107.719 50.879V52.379ZM109.374 52.1976C109.846 52.0688 110.327 51.919 110.818 51.7484L110.325 50.3316C109.865 50.4917 109.416 50.6312 108.979 50.7504L109.374 52.1976ZM109.821 51.04V55.349H111.321V51.04H109.821ZM110.281 54.6574C109.676 54.911 109.029 55.127 108.338 55.3046L108.712 56.7574C109.468 56.563 110.185 56.3244 110.861 56.0406L110.281 54.6574ZM108.338 55.3046C107.698 55.4693 106.847 55.56 105.766 55.56V57.06C106.917 57.06 107.906 56.9647 108.712 56.7574L108.338 55.3046ZM105.766 55.56C104.728 55.56 103.847 55.3965 103.108 55.0902L102.534 56.4758C103.49 56.8721 104.572 57.06 105.766 57.06V55.56ZM103.108 55.0902C102.426 54.8073 101.89 54.328 101.491 53.6181L100.183 54.3519C100.735 55.3366 101.522 56.0561 102.534 56.4758L103.108 55.0902ZM101.502 53.637C101.127 52.9212 100.905 51.8502 100.905 50.358H99.4052C99.4052 51.9658 99.6384 53.3128 100.173 54.333L101.502 53.637ZM100.905 50.358V43.29H99.4052V50.358H100.905ZM100.155 42.54H98.0782V44.04H100.155V42.54ZM98.8282 43.29V40.872H97.3282V43.29H98.8282ZM98.5107 41.4847L101.146 39.6247L100.281 38.3993L97.6457 40.2593L98.5107 41.4847ZM101.404 39.3038L102.923 35.7078L101.541 35.1242L100.022 38.7202L101.404 39.3038ZM102.232 36.166H106.107V34.666H102.232V36.166ZM105.357 35.416V38.857H106.857V35.416H105.357ZM106.107 39.607H110.323V38.107H106.107V39.607ZM109.573 38.857V43.29H111.073V38.857H109.573ZM110.323 42.54H106.107V44.04H110.323V42.54ZM105.357 43.29V49.955H106.857V43.29H105.357ZM105.357 49.955C105.357 50.6217 105.517 51.2607 105.97 51.7307C106.428 52.2061 107.059 52.379 107.719 52.379V50.879C107.305 50.879 107.13 50.7729 107.05 50.6903C106.966 50.6023 106.857 50.4043 106.857 49.955H105.357ZM129.635 38.857H130.385V38.107H129.635V38.857ZM129.635 56V56.75H130.385V56H129.635ZM125.171 56L124.463 56.2464L124.638 56.75H125.171V56ZM124.427 53.861L125.135 53.6146L124.96 53.111H124.427V53.861ZM124.086 53.861V53.111H123.668L123.448 53.4662L124.086 53.861ZM121.885 55.752L122.164 56.4484L122.17 56.4457L122.177 56.4429L121.885 55.752ZM115.871 55.659L116.194 54.9821L115.871 55.659ZM113.701 53.613L113.045 53.9773L113.052 53.9882L113.701 53.613ZM112.926 38.857V38.107H112.176V38.857H112.926ZM118.847 38.857H119.597V38.107H118.847V38.857ZM119.312 50.761L118.651 51.1152L118.656 51.1242L118.661 51.1331L119.312 50.761ZM123.125 50.296L122.436 49.9987L122.433 50.0064L123.125 50.296ZM123.714 38.857V38.107H122.964V38.857H123.714ZM128.885 38.857V56H130.385V38.857H128.885ZM129.635 55.25H125.171V56.75H129.635V55.25ZM125.879 55.7536L125.135 53.6146L123.719 54.1074L124.463 56.2464L125.879 55.7536ZM124.427 53.111H124.086V54.611H124.427V53.111ZM123.448 53.4662C122.992 54.2036 122.378 54.7296 121.593 55.0611L122.177 56.4429C123.252 55.9891 124.105 55.2544 124.724 54.2558L123.448 53.4662ZM121.606 55.0556C120.77 55.3904 119.873 55.56 118.909 55.56V57.06C120.053 57.06 121.14 56.8576 122.164 56.4484L121.606 55.0556ZM118.909 55.56C117.893 55.56 116.992 55.363 116.194 54.9821L115.548 56.3359C116.569 56.823 117.693 57.06 118.909 57.06V55.56ZM116.194 54.9821C115.431 54.6178 114.817 54.0457 114.35 53.2378L113.052 53.9882C113.659 55.0403 114.493 55.8322 115.548 56.3359L116.194 54.9821ZM114.357 53.2488C113.921 52.4645 113.676 51.4029 113.676 50.017H112.176C112.176 51.5658 112.448 52.9015 113.045 53.9772L114.357 53.2488ZM113.676 50.017V38.857H112.176V50.017H113.676ZM112.926 39.607H118.847V38.107H112.926V39.607ZM118.097 38.857V48.219H119.597V38.857H118.097ZM118.097 48.219C118.097 49.383 118.255 50.3762 118.651 51.1152L119.973 50.4068C119.749 49.9885 119.597 49.287 119.597 48.219H118.097ZM118.661 51.1331C119.138 51.9688 119.929 52.379 120.893 52.379V50.879C120.411 50.879 120.147 50.7105 119.963 50.3889L118.661 51.1331ZM120.893 52.379C121.548 52.379 122.155 52.2485 122.673 51.9397C123.198 51.6261 123.576 51.1605 123.817 50.5856L122.433 50.0064C122.302 50.3202 122.122 50.521 121.903 50.6518C121.677 50.7873 121.354 50.879 120.893 50.879V52.379ZM123.814 50.5933C124.266 49.5452 124.464 48.1126 124.464 46.359H122.964C122.964 48.0361 122.769 49.2281 122.436 49.9987L123.814 50.5933ZM124.464 46.359V38.857H122.964V46.359H124.464ZM123.714 39.607H129.635V38.107H123.714V39.607ZM142.963 51.474L143.129 52.2053L143.144 52.2018L143.16 52.1976L142.963 51.474ZM144.358 51.04H145.108V49.9851L144.111 50.3316L144.358 51.04ZM144.358 55.349L144.648 56.0406L145.108 55.8478V55.349H144.358ZM142.312 56.031L142.125 55.3046L142.312 56.031ZM136.608 55.783L136.32 56.4758L136.608 55.783ZM134.624 53.985L133.959 54.333L133.964 54.3425L133.969 54.3519L134.624 53.985ZM133.942 43.29H134.692V42.54H133.942V43.29ZM131.865 43.29H131.115V44.04H131.865V43.29ZM131.865 40.872L131.432 40.2593L131.115 40.4834V40.872H131.865ZM134.5 39.012L134.932 39.6247L135.107 39.5012L135.19 39.3038L134.5 39.012ZM136.019 35.416V34.666H135.521L135.328 35.1242L136.019 35.416ZM139.894 35.416H140.644V34.666H139.894V35.416ZM139.894 38.857H139.144V39.607H139.894V38.857ZM144.11 38.857H144.86V38.107H144.11V38.857ZM144.11 43.29V44.04H144.86V43.29H144.11ZM139.894 43.29V42.54H139.144V43.29H139.894ZM141.506 52.379C142.072 52.379 142.614 52.3223 143.129 52.2053L142.796 50.7426C142.402 50.8323 141.972 50.879 141.506 50.879V52.379ZM143.16 52.1976C143.632 52.0688 144.114 51.919 144.604 51.7484L144.111 50.3316C143.651 50.4917 143.202 50.6312 142.765 50.7504L143.16 52.1976ZM143.608 51.04V55.349H145.108V51.04H143.608ZM144.068 54.6574C143.463 54.911 142.815 55.127 142.125 55.3046L142.498 56.7574C143.254 56.563 143.971 56.3244 144.648 56.0406L144.068 54.6574ZM142.125 55.3046C141.484 55.4693 140.633 55.56 139.553 55.56V57.06C140.704 57.06 141.692 56.9647 142.498 56.7574L142.125 55.3046ZM139.553 55.56C138.514 55.56 137.634 55.3965 136.895 55.0902L136.32 56.4758C137.276 56.8721 138.359 57.06 139.553 57.06V55.56ZM136.895 55.0902C136.212 54.8073 135.676 54.328 135.278 53.6181L133.969 54.3519C134.522 55.3366 135.308 56.0561 136.32 56.4758L136.895 55.0902ZM135.288 53.637C134.913 52.9212 134.692 51.8502 134.692 50.358H133.192C133.192 51.9658 133.425 53.3128 133.959 54.333L135.288 53.637ZM134.692 50.358V43.29H133.192V50.358H134.692ZM133.942 42.54H131.865V44.04H133.942V42.54ZM132.615 43.29V40.872H131.115V43.29H132.615ZM132.297 41.4847L134.932 39.6247L134.067 38.3993L131.432 40.2593L132.297 41.4847ZM135.19 39.3038L136.709 35.7078L135.328 35.1242L133.809 38.7202L135.19 39.3038ZM136.019 36.166H139.894V34.666H136.019V36.166ZM139.144 35.416V38.857H140.644V35.416H139.144ZM139.894 39.607H144.11V38.107H139.894V39.607ZM143.36 38.857V43.29H144.86V38.857H143.36ZM144.11 42.54H139.894V44.04H144.11V42.54ZM139.144 43.29V49.955H140.644V43.29H139.144ZM139.144 49.955C139.144 50.6217 139.304 51.2607 139.756 51.7307C140.214 52.2061 140.845 52.379 141.506 52.379V50.879C141.091 50.879 140.916 50.7729 140.837 50.6903C140.752 50.6023 140.644 50.4043 140.644 49.955H139.144ZM151.951 32.471L151.582 33.1236L151.591 33.1286L151.951 32.471ZM151.951 36.656L152.321 37.3086L152.328 37.3046L151.951 36.656ZM147.518 36.656L147.123 37.2932L147.136 37.3011L147.149 37.3085L147.518 36.656ZM147.518 32.471L147.149 31.8184L147.139 31.824L147.518 32.471ZM152.695 38.857H153.445V38.107H152.695V38.857ZM152.695 56V56.75H153.445V56H152.695ZM146.774 56H146.024V56.75H146.774V56ZM146.774 38.857V38.107H146.024V38.857H146.774ZM149.75 32.694C150.493 32.694 151.094 32.8472 151.582 33.1235L152.321 31.8185C151.569 31.3921 150.703 31.194 149.75 31.194V32.694ZM151.591 33.1286C151.892 33.294 152.162 33.6637 152.162 34.579H153.662C153.662 33.3863 153.292 32.3506 152.312 31.8134L151.591 33.1286ZM152.162 34.579C152.162 35.4349 151.902 35.8171 151.575 36.0074L152.328 37.3046C153.282 36.7509 153.662 35.7484 153.662 34.579H152.162ZM151.582 36.0035C151.094 36.2798 150.493 36.433 149.75 36.433V37.933C150.703 37.933 151.569 37.7348 152.321 37.3085L151.582 36.0035ZM149.75 36.433C148.984 36.433 148.373 36.2784 147.888 36.0035L147.149 37.3085C147.904 37.7363 148.781 37.933 149.75 37.933V36.433ZM147.914 36.0188C147.623 35.838 147.369 35.4556 147.369 34.579H145.869C145.869 35.7277 146.215 36.73 147.123 37.2932L147.914 36.0188ZM147.369 34.579C147.369 33.6426 147.632 33.2736 147.898 33.118L147.139 31.824C146.206 32.3711 145.869 33.4073 145.869 34.579H147.369ZM147.888 33.1235C148.373 32.8486 148.984 32.694 149.75 32.694V31.194C148.781 31.194 147.904 31.3907 147.149 31.8185L147.888 33.1235ZM151.945 38.857V56H153.445V38.857H151.945ZM152.695 55.25H146.774V56.75H152.695V55.25ZM147.524 56V38.857H146.024V56H147.524ZM146.774 39.607H152.695V38.107H146.774V39.607ZM170.278 54.016L170.809 54.5463L170.812 54.5428L170.278 54.016ZM159.583 55.287L159.223 55.9447L159.231 55.9491L159.583 55.287ZM156.545 52.249L155.885 52.6046L155.892 52.6167L156.545 52.249ZM157.754 40.841L157.224 40.3107L157.754 40.841ZM168.449 39.57L168.093 40.2297L168.097 40.2321L168.449 39.57ZM171.456 42.577L170.798 42.9369L170.805 42.9491L171.456 42.577ZM162.063 50.761L161.393 51.0964L161.396 51.1036L162.063 50.761ZM165.969 50.761L165.299 50.4256L165.295 50.4329L165.969 50.761ZM165.969 44.096L165.295 44.4241L165.3 44.4352L165.306 44.4461L165.969 44.096ZM162.063 44.096L162.727 44.4461L162.731 44.4386L162.063 44.096ZM171.822 47.382C171.822 50.1226 171.096 52.12 169.745 53.4892L170.812 54.5428C172.52 52.812 173.322 50.3867 173.322 47.382H171.822ZM169.748 53.4857C168.391 54.8431 166.502 55.56 163.985 55.56V57.06C166.801 57.06 169.107 56.2476 170.809 54.5463L169.748 53.4857ZM163.985 55.56C162.438 55.56 161.094 55.2416 159.936 54.6249L159.231 55.9491C160.635 56.6964 162.226 57.06 163.985 57.06V55.56ZM159.944 54.6294C158.79 53.9968 157.877 53.0868 157.199 51.8813L155.892 52.6167C156.702 54.0565 157.814 55.1719 159.223 55.9446L159.944 54.6294ZM157.206 51.8934C156.554 50.6831 156.21 49.1893 156.21 47.382H154.71C154.71 49.3774 155.09 51.1283 155.885 52.6046L157.206 51.8934ZM156.21 47.382C156.21 44.6856 156.936 42.7205 158.285 41.3713L157.224 40.3107C155.515 42.0202 154.71 44.4157 154.71 47.382H156.21ZM158.285 41.3713C159.641 40.015 161.54 39.297 164.078 39.297V37.797C161.244 37.797 158.926 38.6083 157.224 40.3107L158.285 41.3713ZM164.078 39.297C165.626 39.297 166.957 39.6155 168.093 40.2297L168.806 38.9103C167.42 38.1605 165.837 37.797 164.078 37.797V39.297ZM168.097 40.2321C169.244 40.8426 170.142 41.7374 170.798 42.9369L172.114 42.2171C171.324 40.7713 170.217 39.6614 168.802 38.9079L168.097 40.2321ZM170.805 42.9491C171.469 44.1113 171.822 45.5768 171.822 47.382H173.322C173.322 45.3845 172.931 43.6467 172.108 42.2049L170.805 42.9491ZM160.724 47.382C160.724 48.8973 160.924 50.1593 161.393 51.0964L162.734 50.4256C162.417 49.792 162.224 48.8014 162.224 47.382H160.724ZM161.396 51.1036C161.65 51.5975 162.008 51.9985 162.479 52.2705C162.946 52.5406 163.479 52.658 164.047 52.658V51.158C163.686 51.158 163.423 51.0842 163.229 50.972C163.038 50.8617 162.87 50.6891 162.731 50.4184L161.396 51.1036ZM164.047 52.658C164.608 52.658 165.135 52.5395 165.594 52.2653C166.057 51.9892 166.403 51.5839 166.644 51.0891L165.295 50.4329C165.164 50.7028 165.004 50.871 164.826 50.9772C164.644 51.0853 164.396 51.158 164.047 51.158V52.658ZM166.64 51.0964C167.109 50.1593 167.308 48.8973 167.308 47.382H165.808C165.808 48.8014 165.615 49.792 165.299 50.4256L166.64 51.0964ZM167.308 47.382C167.308 45.8896 167.11 44.6495 166.633 43.7459L165.306 44.4461C165.615 45.0305 165.808 45.9811 165.808 47.382H167.308ZM166.644 43.7679C166.402 43.27 166.051 42.8643 165.582 42.589C165.117 42.3162 164.584 42.199 164.016 42.199V43.699C164.379 43.699 164.636 43.773 164.822 43.8825C165.005 43.9896 165.165 44.1573 165.295 44.4241L166.644 43.7679ZM164.016 42.199C163.456 42.199 162.928 42.3176 162.466 42.589C162.002 42.8619 161.648 43.2625 161.396 43.7534L162.731 44.4386C162.871 44.1648 163.04 43.992 163.226 43.8825C163.415 43.7715 163.668 43.699 164.016 43.699V42.199ZM161.4 43.7459C160.923 44.6495 160.724 45.8896 160.724 47.382H162.224C162.224 45.9811 162.418 45.0305 162.727 44.4461L161.4 43.7459ZM190.389 40.066L189.885 40.6214L189.89 40.6266L190.389 40.066ZM192.063 56V56.75H192.813V56H192.063ZM186.142 56H185.392V56.75H186.142V56ZM181.802 44.592L181.111 44.3003L181.108 44.308L181.802 44.592ZM181.244 56V56.75H181.994V56H181.244ZM175.323 56H174.573V56.75H175.323V56ZM175.323 38.857V38.107H174.573V38.857H175.323ZM179.787 38.857L180.493 38.6054L180.316 38.107H179.787V38.857ZM180.593 41.12L179.886 41.3716L180.064 41.87H180.593V41.12ZM180.81 41.12V41.87H181.211L181.434 41.536L180.81 41.12ZM182.918 39.229L182.576 38.5613L182.57 38.5646L182.918 39.229ZM186.049 39.297C187.675 39.297 188.931 39.7559 189.885 40.6214L190.893 39.5106C189.614 38.3508 187.977 37.797 186.049 37.797V39.297ZM189.89 40.6266C190.783 41.4204 191.313 42.7619 191.313 44.84H192.813C192.813 42.5368 192.226 40.6956 190.887 39.5054L189.89 40.6266ZM191.313 44.84V56H192.813V44.84H191.313ZM192.063 55.25H186.142V56.75H192.063V55.25ZM186.892 56V46.638H185.392V56H186.892ZM186.892 46.638C186.892 45.4516 186.723 44.4389 186.297 43.6929L184.994 44.4371C185.23 44.8485 185.392 45.5511 185.392 46.638H186.892ZM186.297 43.6929C185.819 42.8572 185.029 42.447 184.065 42.447V43.947C184.547 43.947 184.811 44.1155 184.994 44.4371L186.297 43.6929ZM184.065 42.447C183.403 42.447 182.791 42.5851 182.268 42.9073C181.74 43.2327 181.359 43.7124 181.111 44.3003L182.493 44.8837C182.637 44.5416 182.829 44.3238 183.055 44.1842C183.287 44.0413 183.61 43.947 184.065 43.947V42.447ZM181.108 44.308C180.681 45.3502 180.494 46.7663 180.494 48.498H181.994C181.994 46.8404 182.178 45.6524 182.496 44.876L181.108 44.308ZM180.494 48.498V56H181.994V48.498H180.494ZM181.244 55.25H175.323V56.75H181.244V55.25ZM176.073 56V38.857H174.573V56H176.073ZM175.323 39.607H179.787V38.107H175.323V39.607ZM179.08 39.1086L179.886 41.3716L181.299 40.8684L180.493 38.6054L179.08 39.1086ZM180.593 41.87H180.81V40.37H180.593V41.87ZM181.434 41.536C181.9 40.8359 182.508 40.2904 183.266 39.8934L182.57 38.5646C181.592 39.0769 180.794 39.7921 180.186 40.704L181.434 41.536ZM183.259 39.8967C184.023 39.5059 184.945 39.297 186.049 39.297V37.797C184.755 37.797 183.59 38.0427 182.576 38.5613L183.259 39.8967Z" fill="black"/>
<path d="M4.10023 76.1864C3.4338 76.1864 2.79561 76.1186 2.18566 75.9831C1.587 75.8475 1.07306 75.6781 0.643837 75.4748L1.16907 74.0177C1.51923 74.1645 1.94846 74.317 2.45675 74.4751C2.97634 74.6333 3.51852 74.7123 4.08328 74.7123C4.63676 74.7123 5.08858 74.6163 5.43873 74.4243C5.78889 74.221 5.96397 73.9273 5.96397 73.5433C5.96397 73.1931 5.80019 72.9051 5.47262 72.6792C5.14505 72.4532 4.64805 72.233 3.98163 72.0184C2.95375 71.6908 2.16307 71.3181 1.60959 70.9001C1.06741 70.4709 0.796325 69.8553 0.796325 69.0533C0.796325 68.2852 1.1013 67.6753 1.71125 67.2235C2.3325 66.7604 3.25872 66.5288 4.48992 66.5288C5.05469 66.5288 5.57992 66.5796 6.06563 66.6813C6.56262 66.783 6.94667 66.9129 7.21776 67.071V68.562C6.92408 68.4264 6.52309 68.2965 6.0148 68.1723C5.5178 68.048 5.00951 67.9859 4.48992 67.9859C3.8122 67.9859 3.32649 68.0876 3.03281 68.2909C2.75043 68.4829 2.60924 68.7145 2.60924 68.9856C2.60924 69.3357 2.77867 69.6068 3.11753 69.7988C3.46769 69.9909 4.05505 70.2281 4.87961 70.5104C5.44438 70.7025 5.94138 70.9171 6.3706 71.1543C6.81112 71.3915 7.15563 71.6908 7.40413 72.0523C7.65263 72.4024 7.77688 72.8542 7.77688 73.4077C7.77688 73.8934 7.65828 74.3509 7.42107 74.7801C7.19517 75.198 6.81112 75.5369 6.26894 75.7967C5.73806 76.0565 5.01516 76.1864 4.10023 76.1864ZM5.35666 65.292C4.62246 65.292 4.10852 65.1451 3.81484 64.8514C3.52116 64.5465 3.37432 64.2076 3.37432 63.8349C3.37432 63.6541 3.40256 63.4621 3.45904 63.2588C3.50422 63.0555 3.57199 62.8804 3.66235 62.7336L5.10252 62.9538C5.07993 63.0103 5.05734 63.0894 5.03475 63.191C5.01215 63.2927 5.00086 63.3887 5.00086 63.4791C5.00086 63.6259 5.04604 63.7501 5.1364 63.8518C5.22677 63.9535 5.3849 64.0043 5.61081 64.0043H9.71104V65.292H5.35666ZM10.7092 76V71.9337H9.52321V70.646H12.4035V74.5768H12.5899C13.2902 74.5768 13.8211 74.3226 14.1826 73.8143C14.544 73.306 14.7247 72.4758 14.7247 71.3237C14.7247 70.1264 14.5101 69.2736 14.0809 68.7653C13.6517 68.257 12.9457 68.0029 11.963 68.0029C11.4095 68.0029 10.89 68.0763 10.4042 68.2231C9.91855 68.37 9.46108 68.5846 9.03186 68.867V67.2404C9.38202 67.0484 9.83383 66.8846 10.3873 66.7491C10.9521 66.6022 11.5677 66.5288 12.2341 66.5288C12.765 66.5288 13.2337 66.5796 13.6404 66.6813C14.0583 66.783 14.4085 66.9467 14.6909 67.1726C14.9281 67.0823 15.1314 66.9524 15.3008 66.783C15.4702 66.6022 15.5549 66.3763 15.5549 66.1052H17.2493C17.2493 66.5909 17.1024 67.0089 16.8087 67.359C16.5151 67.6979 16.1141 67.9464 15.6058 68.1045C16.2496 68.7709 16.5715 69.8553 16.5715 71.3576C16.5715 72.826 16.2496 73.9668 15.6058 74.7801C14.9732 75.5934 13.8889 76 12.3527 76H10.7092ZM9.11657 79.4564V79.0159C9.11657 78.3607 9.30295 77.8637 9.6757 77.5249C10.0484 77.1973 10.489 77.0335 10.9973 77.0335C11.4491 77.0335 11.8105 77.1295 12.0816 77.3216C12.364 77.5249 12.5956 77.7677 12.7763 78.0501L13.742 77.1352L14.8942 78.0162V76.7794H16.4699V79.4564H14.8095L13.742 78.5415L12.8441 79.4564H12.4882C12.364 79.174 12.2059 78.9255 12.0138 78.7109C11.8331 78.5076 11.6016 78.4059 11.3192 78.4059C11.0481 78.4059 10.8617 78.5076 10.7601 78.7109C10.6584 78.9142 10.6076 79.1175 10.6076 79.3208V79.4564H9.11657ZM22.4967 76.1864C21.7851 76.1864 21.1469 76.1242 20.5821 76C20.0174 75.8645 19.526 75.7176 19.1081 75.5595V71.7642H20.7346V74.509C20.8928 74.5881 21.13 74.6558 21.4462 74.7123C21.7738 74.7688 22.1127 74.797 22.4628 74.797C22.8356 74.797 23.1801 74.7575 23.4964 74.6784C23.8126 74.5881 24.0668 74.4299 24.2588 74.204C24.4621 73.9781 24.5638 73.6562 24.5638 73.2383C24.5638 72.8203 24.4565 72.5097 24.2419 72.3064C24.0385 72.1031 23.7279 71.9337 23.31 71.7981C22.9034 71.6626 22.4007 71.5101 21.8021 71.3407C21.1243 71.1486 20.5652 70.9566 20.1247 70.7646C19.6842 70.5613 19.351 70.3184 19.125 70.036C18.9104 69.7424 18.8031 69.3583 18.8031 68.8839C18.8031 67.3138 20.0343 66.5288 22.4967 66.5288C23.2648 66.5288 23.9199 66.5909 24.4621 66.7152C25.0043 66.8394 25.4109 66.9637 25.682 67.0879V68.5959C25.377 68.449 24.9196 68.3078 24.3096 68.1723C23.6997 68.0255 23.0445 67.952 22.3442 67.952C21.8246 67.952 21.4067 68.0142 21.0904 68.1384C20.7742 68.2514 20.616 68.4603 20.616 68.7653C20.616 69.0929 20.8306 69.3357 21.2599 69.4939C21.6891 69.6407 22.2708 69.8158 23.005 70.0191C23.6263 70.1885 24.1854 70.3918 24.6824 70.629C25.1794 70.8549 25.5747 71.1712 25.8684 71.5779C26.1734 71.9732 26.3259 72.5154 26.3259 73.2044C26.3259 73.803 26.2016 74.3283 25.9531 74.7801C25.7046 75.2206 25.298 75.5651 24.7332 75.8136C24.1797 76.0621 23.4342 76.1864 22.4967 76.1864ZM31.186 76.1864C30.5196 76.1864 29.8814 76.1186 29.2714 75.9831C28.6728 75.8475 28.1588 75.6781 27.7296 75.4748L28.2549 74.0177C28.605 74.1645 29.0342 74.317 29.5425 74.4751C30.0621 74.6333 30.6043 74.7123 31.1691 74.7123C31.7225 74.7123 32.1744 74.6163 32.5245 74.4243C32.8747 74.221 33.0497 73.9273 33.0497 73.5433C33.0497 73.1931 32.886 72.9051 32.5584 72.6792C32.2308 72.4532 31.7338 72.233 31.0674 72.0184C30.0395 71.6908 29.2488 71.3181 28.6954 70.9001C28.1532 70.4709 27.8821 69.8553 27.8821 69.0533C27.8821 68.2852 28.1871 67.6753 28.797 67.2235C29.4183 66.7604 30.3445 66.5288 31.5757 66.5288C32.1405 66.5288 32.6657 66.5796 33.1514 66.6813C33.6484 66.783 34.0324 66.9129 34.3035 67.071V68.562C34.0099 68.4264 33.6089 68.2965 33.1006 68.1723C32.6036 68.048 32.0953 67.9859 31.5757 67.9859C30.898 67.9859 30.4123 68.0876 30.1186 68.2909C29.8362 68.4829 29.695 68.7145 29.695 68.9856C29.695 69.3357 29.8644 69.6068 30.2033 69.7988C30.5535 69.9909 31.1408 70.2281 31.9654 70.5104C32.5302 70.7025 33.0272 70.9171 33.4564 71.1543C33.8969 71.3915 34.2414 71.6908 34.4899 72.0523C34.7384 72.4024 34.8627 72.8542 34.8627 73.4077C34.8627 73.8934 34.7441 74.3509 34.5069 74.7801C34.2809 75.198 33.8969 75.5369 33.3547 75.7967C32.8238 76.0565 32.1009 76.1864 31.186 76.1864ZM39.6079 76.1864C38.9415 76.1864 38.3033 76.1186 37.6933 75.9831C37.0947 75.8475 36.5808 75.6781 36.1515 75.4748L36.6768 74.0177C37.0269 74.1645 37.4561 74.317 37.9644 74.4751C38.484 74.6333 39.0262 74.7123 39.591 74.7123C40.1444 74.7123 40.5963 74.6163 40.9464 74.4243C41.2966 74.221 41.4717 73.9273 41.4717 73.5433C41.4717 73.1931 41.3079 72.9051 40.9803 72.6792C40.6527 72.4532 40.1557 72.233 39.4893 72.0184C38.4614 71.6908 37.6708 71.3181 37.1173 70.9001C36.5751 70.4709 36.304 69.8553 36.304 69.0533C36.304 68.2852 36.609 67.6753 37.2189 67.2235C37.8402 66.7604 38.7664 66.5288 39.9976 66.5288C40.5624 66.5288 41.0876 66.5796 41.5733 66.6813C42.0703 66.783 42.4544 66.9129 42.7254 67.071V68.562C42.4318 68.4264 42.0308 68.2965 41.5225 68.1723C41.0255 68.048 40.5172 67.9859 39.9976 67.9859C39.3199 67.9859 38.8342 68.0876 38.5405 68.2909C38.2581 68.4829 38.1169 68.7145 38.1169 68.9856C38.1169 69.3357 38.2864 69.6068 38.6252 69.7988C38.9754 69.9909 39.5627 70.2281 40.3873 70.5104C40.9521 70.7025 41.4491 70.9171 41.8783 71.1543C42.3188 71.3915 42.6633 71.6908 42.9118 72.0523C43.1603 72.4024 43.2846 72.8542 43.2846 73.4077C43.2846 73.8934 43.166 74.3509 42.9288 74.7801C42.7029 75.198 42.3188 75.5369 41.7766 75.7967C41.2458 76.0565 40.5228 76.1864 39.6079 76.1864ZM50.0122 76.1694C49.2667 76.1694 48.6341 76.0226 48.1145 75.7289C47.6062 75.4352 47.2561 75.0342 47.0641 74.526H46.9624L46.8269 76H45.3867V66.7152H47.1996V71.8151C47.1996 72.7074 47.4029 73.4021 47.8096 73.8991C48.2162 74.3848 48.7923 74.6276 49.5378 74.6276C50.7577 74.6276 51.3676 73.9668 51.3676 72.6453V66.7152H53.1805V72.8825C53.1805 73.9894 52.9038 74.814 52.3503 75.3562C51.7968 75.8983 51.0175 76.1694 50.0122 76.1694ZM58.9928 76.1694C57.9875 76.1694 57.2025 75.8983 56.6377 75.3562C56.0842 74.814 55.8075 73.9725 55.8075 72.8316V66.7152H57.6204V72.6453C57.6204 73.9668 58.236 74.6276 59.4672 74.6276C60.2014 74.6276 60.7662 74.3848 61.1615 73.8991C61.5681 73.4021 61.7715 72.7074 61.7715 71.8151V66.7152H63.5844V76H62.1442L62.0087 74.6107H61.907C61.7037 75.0625 61.3592 75.4352 60.8735 75.7289C60.3878 76.0226 59.7609 76.1694 58.9928 76.1694ZM61.264 80.4899C60.4846 80.4899 59.9029 80.3487 59.5188 80.0663C59.1235 79.784 58.9258 79.3886 58.9258 78.8803V78.5923C58.9258 78.4003 58.8806 78.2817 58.7903 78.2365C58.6886 78.2026 58.5531 78.2082 58.3836 78.2534L58.265 77.203C58.4232 77.1465 58.5983 77.1126 58.7903 77.1013C58.971 77.09 59.1122 77.0844 59.2139 77.0844C59.6431 77.0844 59.9537 77.1747 60.1457 77.3554C60.3264 77.5362 60.4168 77.7903 60.4168 78.1179V78.6431C60.4168 78.8577 60.4789 79.0272 60.6032 79.1514C60.7274 79.287 60.9364 79.3547 61.2301 79.3547C61.5351 79.3547 61.7497 79.287 61.8739 79.1514C61.9869 79.0272 62.0433 78.8577 62.0433 78.6431V77.1352H63.5852V78.7787C63.5852 79.9195 62.8114 80.4899 61.264 80.4899ZM75.1742 79.0498C74.6885 79.0498 74.2028 78.9989 73.7171 78.8973C73.2427 78.8069 72.7966 78.6657 72.3786 78.4737V76.8133C72.7175 77.0392 73.1241 77.2143 73.5985 77.3385C74.0842 77.4628 74.5643 77.5249 75.0387 77.5249C75.739 77.5249 76.3038 77.3611 76.733 77.0335C77.1622 76.706 77.3768 76.096 77.3768 75.2037V74.7462H77.2921C77.0775 75.0851 76.75 75.3731 76.3094 75.6103C75.8802 75.8362 75.3493 75.9492 74.7168 75.9492C74.1746 75.9492 73.6889 75.8475 73.2597 75.6442C72.8304 75.4409 72.4916 75.119 72.2431 74.6784C72.0059 74.2266 71.8873 73.6393 71.8873 72.9164V69.9513C71.8873 69.443 71.7913 69.0477 71.5993 68.7653C71.4185 68.4829 71.1757 68.2852 70.8707 68.1723C70.5657 68.0593 70.2382 68.0029 69.888 68.0029C69.3345 68.0029 68.8771 68.1215 68.5156 68.3587C68.1655 68.5959 67.9791 68.946 67.9565 69.4091L69.7525 70.2563L69.6169 71.1543C69.1877 71.1656 68.8375 71.2898 68.5664 71.527C68.2953 71.7529 68.1598 72.1483 68.1598 72.713V74.0685C68.1598 74.5429 68.3914 74.7801 68.8545 74.7801C69.0917 74.7801 69.3006 74.7462 69.4814 74.6784L69.7016 75.8983C69.487 76 69.2724 76.0678 69.0578 76.1017C68.8432 76.1468 68.6229 76.1694 68.397 76.1694C67.8322 76.1694 67.3522 76.0339 66.9568 75.7628C66.5615 75.4804 66.3638 74.9834 66.3638 74.2718V72.7978C66.3638 72.1087 66.5163 71.6061 66.8213 71.2898C67.1263 70.9735 67.5216 70.7476 68.0073 70.6121L68.0243 70.5443L66.1097 69.8497V69.3244C66.1097 68.8048 66.2622 68.3361 66.5672 67.9181C66.8721 67.4889 67.307 67.1501 67.8718 66.9016C68.4478 66.6531 69.1256 66.5288 69.9049 66.5288C70.594 66.5288 71.2209 66.6418 71.7856 66.8677C72.3617 67.0823 72.8192 67.4268 73.158 67.9012C73.5082 68.3756 73.6833 69.0025 73.6833 69.7819V72.6114C73.6833 73.2439 73.8244 73.7014 74.1068 73.9838C74.4005 74.2662 74.7789 74.4073 75.242 74.4073C75.8746 74.4073 76.3772 74.1758 76.75 73.7127C77.134 73.2383 77.326 72.6057 77.326 71.8151V66.7152H79.1389V75.0681C79.1389 76.4123 78.8001 77.4119 78.1223 78.0671C77.4446 78.7222 76.4619 79.0498 75.1742 79.0498ZM84.0353 76.1694C83.4706 76.1694 82.9962 76.0339 82.6121 75.7628C82.2281 75.4804 82.0361 74.9834 82.0361 74.2718V67.7487C82.0361 67.4437 82.0587 67.1952 82.1038 67.0032C82.1603 66.7999 82.2507 66.6079 82.3749 66.4272C82.4992 66.2351 82.6743 65.9979 82.9002 65.7155C83.16 65.3993 83.3576 65.1338 83.4932 64.9192C83.64 64.6933 83.7134 64.4505 83.7134 64.1907C83.7134 63.5581 83.3181 63.2419 82.5274 63.2419C82.1886 63.2419 81.8779 63.2927 81.5955 63.3943C81.3245 63.4847 81.0985 63.5864 80.9178 63.6993V62.2422C81.076 62.1518 81.3301 62.0615 81.6803 61.9711C82.0304 61.8695 82.4483 61.8186 82.934 61.8186C83.7247 61.8186 84.3573 61.9937 84.8317 62.3439C85.3061 62.6827 85.5433 63.2023 85.5433 63.9026C85.5433 64.3544 85.4529 64.7498 85.2722 65.0886C85.1028 65.4275 84.9107 65.7325 84.6961 66.0036C84.5041 66.2521 84.346 66.461 84.2217 66.6305C84.0975 66.7886 84.0015 66.958 83.9337 67.1388C83.8772 67.3082 83.849 67.5285 83.849 67.7995V74.0515C83.849 74.5147 84.0692 74.7462 84.5098 74.7462C84.6227 74.7462 84.73 74.7349 84.8317 74.7123C84.9446 74.6897 85.0463 74.6615 85.1366 74.6276L85.3569 75.8983C85.1423 76 84.922 76.0678 84.6961 76.1017C84.4815 76.1468 84.2613 76.1694 84.0353 76.1694ZM90.1158 76.1694C89.1105 76.1694 88.3255 75.8983 87.7607 75.3562C87.2072 74.814 86.9305 73.9725 86.9305 72.8316V66.7152H88.7434V72.6453C88.7434 73.9668 89.359 74.6276 90.5902 74.6276C91.3244 74.6276 91.8892 74.3848 92.2845 73.8991C92.6911 73.4021 92.8945 72.7074 92.8945 71.8151V66.7152H94.7074V76H93.2672L93.1317 74.6107H93.03C92.8267 75.0625 92.4822 75.4352 91.9965 75.7289C91.5108 76.0226 90.8839 76.1694 90.1158 76.1694ZM97.5716 76V68.4773C97.5716 67.969 97.6676 67.5793 97.8596 67.3082C98.0516 67.0258 98.3058 66.8281 98.622 66.7152C98.9496 66.6022 99.2997 66.5458 99.6725 66.5458C99.8645 66.5458 100.062 66.5683 100.266 66.6135C100.469 66.6474 100.65 66.7039 100.808 66.783L100.57 68.0706C100.469 68.0367 100.362 68.0142 100.249 68.0029C100.147 67.9916 100.062 67.9859 99.9944 67.9859C99.7459 67.9859 99.5652 68.0537 99.4522 68.1892C99.3506 68.3135 99.2997 68.4886 99.2997 68.7145V71.0357C99.2997 71.3632 99.2941 71.719 99.2828 72.1031C99.2828 72.4871 99.2602 72.9502 99.215 73.4924H99.2828C99.5087 72.9954 99.7177 72.5831 99.9097 72.2556C100.102 71.928 100.271 71.6174 100.418 71.3237L101.248 69.9174H102.197L103.01 71.3237C103.259 71.7755 103.468 72.1596 103.637 72.4758C103.807 72.7808 103.976 73.1197 104.145 73.4924H104.23C104.185 72.9502 104.157 72.4871 104.145 72.1031C104.134 71.719 104.129 71.3632 104.129 71.0357V63.3774H105.874V76H104.213L101.756 71.7812H101.689L99.232 76H97.5716ZM100.392 65.292C99.6581 65.292 99.1442 65.1451 98.8505 64.8514C98.5568 64.5465 98.41 64.2076 98.41 63.8349C98.41 63.6541 98.4326 63.4621 98.4777 63.2588C98.5229 63.0555 98.5907 62.8804 98.6811 62.7336L100.121 62.9538C100.099 63.0103 100.082 63.0894 100.07 63.191C100.059 63.2927 100.053 63.3887 100.053 63.4791C100.053 63.6259 100.099 63.7501 100.189 63.8518C100.279 63.9535 100.432 64.0043 100.646 64.0043H103.086V65.292H100.392ZM111.874 76.1694C110.868 76.1694 110.083 75.8983 109.519 75.3562C108.965 74.814 108.688 73.9725 108.688 72.8316V66.7152H110.501V72.6453C110.501 73.9668 111.117 74.6276 112.348 74.6276C113.082 74.6276 113.647 74.3848 114.042 73.8991C114.449 73.4021 114.652 72.7074 114.652 71.8151V66.7152H116.465V76H115.025L114.89 74.6107H114.788C114.585 75.0625 114.24 75.4352 113.754 75.7289C113.269 76.0226 112.642 76.1694 111.874 76.1694ZM122.65 76.1864C121.374 76.1864 120.425 75.8645 119.804 75.2206C119.183 74.5768 118.872 73.5715 118.872 72.2047C118.872 71.9788 118.878 71.7247 118.889 71.4423C118.912 71.1599 118.94 70.8945 118.974 70.646H122.684V71.9506H120.685V72.2556C120.685 73.2157 120.843 73.8765 121.159 74.2379C121.487 74.5881 121.973 74.7632 122.616 74.7632C123.08 74.7632 123.481 74.6728 123.819 74.4921C124.17 74.3 124.435 73.9668 124.616 73.4924C124.808 73.018 124.904 72.3403 124.904 71.4593C124.904 70.2845 124.7 69.4204 124.294 68.867C123.899 68.3022 123.198 68.0198 122.193 68.0198C121.662 68.0198 121.137 68.0932 120.617 68.2401C120.109 68.3756 119.646 68.5676 119.228 68.8161V67.1896C119.578 67.0089 120.041 66.8564 120.617 66.7321C121.193 66.5966 121.809 66.5288 122.464 66.5288C123.481 66.5288 124.305 66.7321 124.938 67.1388C125.57 67.5341 126.033 68.0989 126.327 68.8331C126.621 69.5673 126.768 70.4314 126.768 71.4254C126.768 72.9389 126.451 74.1137 125.819 74.9495C125.197 75.7741 124.141 76.1864 122.65 76.1864ZM132.479 76.1864C131.202 76.1864 130.253 75.8645 129.632 75.2206C129.011 74.5768 128.7 73.5715 128.7 72.2047C128.7 71.9788 128.706 71.7247 128.717 71.4423C128.74 71.1599 128.768 70.8945 128.802 70.646H132.513V71.9506H130.513V72.2556C130.513 73.2157 130.671 73.8765 130.988 74.2379C131.315 74.5881 131.801 74.7632 132.445 74.7632C132.908 74.7632 133.309 74.6728 133.648 74.4921C133.998 74.3 134.263 73.9668 134.444 73.4924C134.636 73.018 134.732 72.3403 134.732 71.4593C134.732 70.2845 134.529 69.4204 134.122 68.867C133.727 68.3022 133.027 68.0198 132.021 68.0198C131.49 68.0198 130.965 68.0932 130.446 68.2401C129.937 68.3756 129.474 68.5676 129.056 68.8161V67.1896C129.406 67.0089 129.869 66.8564 130.446 66.7321C131.022 66.5966 131.637 66.5288 132.292 66.5288C133.309 66.5288 134.133 66.7321 134.766 67.1388C135.399 67.5341 135.862 68.0989 136.155 68.8331C136.449 69.5673 136.596 70.4314 136.596 71.4254C136.596 72.9389 136.28 74.1137 135.647 74.9495C135.026 75.7741 133.97 76.1864 132.479 76.1864ZM138.817 76V72.8994C138.817 72.1878 138.969 71.6626 139.274 71.3237C139.579 70.9848 139.98 70.7476 140.477 70.6121L140.494 70.5443L138.647 69.8497V69.3244C138.647 68.8387 138.8 68.3869 139.105 67.969C139.421 67.5397 139.873 67.1952 140.46 66.9354C141.048 66.6644 141.759 66.5288 142.595 66.5288C143.329 66.5288 143.996 66.6474 144.594 66.8846C145.193 67.1105 145.667 67.472 146.018 67.969C146.368 68.4547 146.543 69.0816 146.543 69.8497V76H144.73V70.0021C144.73 69.3018 144.527 68.7992 144.12 68.4942C143.713 68.1779 143.194 68.0198 142.561 68.0198C141.917 68.0198 141.415 68.1553 141.053 68.4264C140.692 68.6862 140.505 69.0194 140.494 69.4261L142.239 70.2732L142.087 71.1712C141.658 71.1825 141.307 71.3237 141.036 71.5948C140.765 71.8659 140.63 72.2838 140.63 72.8486V76H138.817ZM151.446 76.1694C150.893 76.1694 150.419 76.0339 150.023 75.7628C149.639 75.4804 149.447 74.9834 149.447 74.2718V66.7152H151.26V74.0515C151.26 74.3 151.311 74.4808 151.413 74.5937C151.514 74.6954 151.689 74.7462 151.938 74.7462C152.028 74.7462 152.13 74.7349 152.243 74.7123C152.356 74.6897 152.463 74.6615 152.565 74.6276L152.768 75.8983C152.553 76 152.333 76.0678 152.107 76.1017C151.881 76.1468 151.661 76.1694 151.446 76.1694ZM156.207 76.1694C155.654 76.1694 155.18 76.0339 154.784 75.7628C154.4 75.4804 154.208 74.9834 154.208 74.2718V66.7152H156.021V74.0515C156.021 74.3 156.072 74.4808 156.174 74.5937C156.275 74.6954 156.45 74.7462 156.699 74.7462C156.789 74.7462 156.891 74.7349 157.004 74.7123C157.117 74.6897 157.224 74.6615 157.326 74.6276L157.529 75.8983C157.314 76 157.094 76.0678 156.868 76.1017C156.642 76.1468 156.422 76.1694 156.207 76.1694ZM162.884 76.1864C161.506 76.1864 160.518 75.8701 159.919 75.2376C159.321 74.605 159.021 73.7014 159.021 72.5267V66.7152H160.834V72.5775C160.834 73.2778 160.998 73.8087 161.326 74.1701C161.664 74.5203 162.184 74.6954 162.884 74.6954C163.596 74.6954 164.116 74.5203 164.443 74.1701C164.782 73.8087 164.951 73.2778 164.951 72.5775V66.7152H166.764V72.5267C166.764 73.7014 166.459 74.605 165.849 75.2376C165.251 75.8701 164.262 76.1864 162.884 76.1864ZM173.275 76.1864C171.897 76.1864 170.909 75.8701 170.31 75.2376C169.712 74.605 169.412 73.7014 169.412 72.5267V66.7152H171.225V72.5775C171.225 73.2778 171.389 73.8087 171.717 74.1701C172.055 74.5203 172.575 74.6954 173.275 74.6954C173.987 74.6954 174.506 74.5203 174.834 74.1701C175.173 73.8087 175.342 73.2778 175.342 72.5775V66.7152H177.155V72.5267C177.155 73.7014 176.85 74.605 176.24 75.2376C175.642 75.8701 174.653 76.1864 173.275 76.1864ZM182.328 76.1694C181.774 76.1694 181.3 76.0339 180.904 75.7628C180.52 75.4804 180.328 74.9834 180.328 74.2718V65.5461C180.328 64.9136 180.413 64.4448 180.582 64.1398C180.763 63.8349 180.967 63.5977 181.192 63.4282L181.176 63.3605H178.329L178.736 61.9881H183.7V63.3605C183.271 63.3605 182.904 63.496 182.599 63.7671C182.294 64.0382 182.141 64.5352 182.141 65.2581V74.0515C182.141 74.3 182.192 74.4808 182.294 74.5937C182.395 74.6954 182.57 74.7462 182.819 74.7462C182.909 74.7462 183.011 74.7349 183.124 74.7123C183.237 74.6897 183.344 74.6615 183.446 74.6276L183.649 75.8983C183.435 76 183.214 76.0678 182.988 76.1017C182.763 76.1468 182.542 76.1694 182.328 76.1694ZM188.234 76.1694C187.319 76.1694 186.596 75.9605 186.066 75.5425C185.546 75.1246 185.179 74.5598 184.964 73.8482C184.75 73.1366 184.642 72.3346 184.642 71.4423C184.642 70.1546 184.823 69.155 185.185 68.4434C185.546 67.7318 186.049 67.2348 186.692 66.9524C187.336 66.67 188.082 66.5288 188.929 66.5288C190.341 66.5288 191.357 66.8281 191.979 67.4268C192.6 68.0255 192.911 68.8331 192.911 69.8497V76H191.098V70.0191C191.098 69.364 190.934 68.867 190.606 68.5281C190.29 68.1892 189.742 68.0198 188.963 68.0198C188.477 68.0198 188.048 68.1102 187.675 68.2909C187.302 68.4716 187.009 68.8105 186.794 69.3075C186.58 69.7932 186.472 70.5048 186.472 71.4423C186.472 72.0636 186.534 72.617 186.659 73.1027C186.783 73.5884 186.992 73.9725 187.285 74.2549C187.59 74.5372 188.008 74.6784 188.539 74.6784C188.856 74.6784 189.132 74.6389 189.369 74.5598L189.539 75.9492C189.358 76.0282 189.149 76.0847 188.912 76.1186C188.675 76.1525 188.449 76.1694 188.234 76.1694ZM187.864 65.3089V64.5295C188.068 64.4843 188.282 64.4222 188.508 64.3432C188.734 64.2528 188.926 64.1398 189.084 64.0043C189.231 63.8687 189.304 63.6937 189.304 63.4791C189.304 63.3322 189.265 63.2136 189.186 63.1233C189.096 63.0329 188.966 62.9877 188.796 62.9877C188.683 62.9877 188.576 63.0103 188.474 63.0555C188.361 63.0894 188.26 63.1233 188.169 63.1571L187.83 62.1744C188.056 61.9937 188.316 61.8751 188.61 61.8186C188.904 61.7509 189.146 61.717 189.338 61.717C189.801 61.717 190.169 61.8412 190.44 62.0897C190.699 62.3382 190.829 62.6658 190.829 63.0724C190.829 63.4113 190.716 63.7163 190.491 63.9873H193.201V65.3089H187.864Z" fill="black"/>
</svg>
