<svg width="80" height="80" viewBox="0 0 80 80" fill="none" xmlns="http://www.w3.org/2000/svg">
<path d="M60.0864 11.386C59.4097 10.9407 58.5825 10.8665 57.9058 11.2376L21.136 30.2336C20.3841 30.6046 19.9329 31.4208 20.0081 32.2371C20.0833 33.0533 20.6097 33.7953 21.4368 34.0921L32.1143 37.7281L43.6942 28.3785L35.3477 38.7669L53.6949 44.9258C53.9205 45 54.1461 45 54.3717 45C54.7476 45 55.1236 44.9258 55.4996 44.7032C56.0259 44.4064 56.4019 43.8127 56.4771 43.2191L60.9887 13.3894C61.0639 12.6474 60.7631 11.9054 60.0864 11.386Z" fill="black"/>
<path d="M34 49.8759C34 50.7862 34.6 51.6207 35.5 51.9241C35.725 52 35.95 52 36.1 52C36.775 52 37.45 51.6966 37.825 51.1655L43 44.1103L34 41V49.8759Z" fill="black"/>
<path d="M32.6376 55.1838C32.2511 54.8859 31.6326 54.9604 31.3234 55.3327L20.1908 69.5559C19.8816 69.9283 19.9589 70.524 20.3454 70.8219C20.5774 70.9708 20.8093 71.0453 21.0412 70.9708C21.2731 70.9708 21.5051 70.8219 21.6597 70.5985L32.8695 56.3753C33.1015 56.0774 33.0242 55.4817 32.6376 55.1838Z" fill="black"/>
<path d="M35.5065 60.3861L30.1801 67.5397C29.8882 67.9162 29.9612 68.5187 30.326 68.8199C30.5449 68.9705 30.7638 69.0458 30.9827 68.9705C31.2016 68.9705 31.4205 68.8199 31.5664 68.594L36.8199 61.4404C37.1118 61.0638 37.0388 60.4614 36.674 60.1602C36.3092 59.859 35.7984 60.0096 35.5065 60.3861Z" fill="black"/>
<path d="M19.9827 61C20.2016 61 20.4205 60.8493 20.5664 60.6233L25.8199 53.4666C26.1118 53.0899 26.0388 52.4873 25.674 52.1859C25.3092 51.8846 24.7254 51.9599 24.4336 52.3366L19.1801 59.4933C18.8882 59.87 18.9612 60.4727 19.326 60.774C19.472 61 19.7638 61 19.9827 61Z" fill="black"/>
</svg>
