<svg width="80" height="80" viewBox="0 0 80 80" fill="none" xmlns="http://www.w3.org/2000/svg">
<path d="M58.9021 49.5007H57.1274V47.5213C57.1274 47.18 56.9909 46.8387 56.7178 46.6339C56.4448 46.4291 56.1035 46.3609 55.7622 46.4291L52.7589 47.0435C52.5541 43.1528 49.4143 40.0812 45.4553 40.0812H34.8071C30.8482 40.0812 27.7083 43.1528 27.5035 47.0435L24.4319 46.4291C24.0906 46.3609 23.7494 46.4291 23.4763 46.6339C23.2033 46.8387 23.0668 47.18 23.0668 47.5213V49.5007H21.2921C20.6778 49.5007 20.2 49.9785 20.2 50.5929V71.6845C20.2 72.2988 20.6778 72.7766 21.2921 72.7766H58.9021C59.5164 72.7766 59.9942 72.2988 59.9942 71.6845V50.6611C60.0625 50.0468 59.5164 49.5007 58.9021 49.5007ZM39.0391 70.3876L25.3875 67.7256V48.8864L39.0391 51.5485V70.3876ZM54.8749 67.7256L41.2233 70.3876V51.5485L54.8749 48.8864V67.7256Z" fill="black"/>
<path d="M28.5274 54.8248L35.4215 56.19C35.4897 56.19 35.558 56.19 35.6262 56.19C36.1723 56.19 36.6501 55.8487 36.7184 55.3026C36.8549 54.6883 36.4453 54.074 35.831 54.0057L28.937 52.6406C28.3227 52.504 27.7083 52.9136 27.6401 53.5279C27.5036 54.1422 27.9131 54.6883 28.5274 54.8248Z" fill="black"/>
<path d="M28.5274 60.0807L35.4215 61.4458C35.4897 61.4458 35.558 61.4458 35.6262 61.4458C36.1723 61.4458 36.6501 61.1045 36.7184 60.5585C36.8549 59.9442 36.4453 59.3298 35.831 59.2616L28.937 57.8964C28.3227 57.7599 27.7083 58.1695 27.6401 58.7838C27.5036 59.3981 27.9131 59.9442 28.5274 60.0807Z" fill="black"/>
<path d="M28.5274 65.3364L35.4215 66.7016C35.4897 66.7016 35.558 66.7016 35.6262 66.7016C36.1723 66.7016 36.6501 66.3603 36.7184 65.8142C36.8549 65.1999 36.4453 64.5856 35.831 64.5173L28.937 63.1522C28.3227 63.0156 27.7083 63.4252 27.6401 64.0395C27.5036 64.6538 27.9131 65.1999 28.5274 65.3364Z" fill="black"/>
<path d="M44.6363 56.19C44.7045 56.19 44.7728 56.19 44.841 56.19L51.7351 54.8248C52.3494 54.6883 52.7589 54.1422 52.6224 53.5279C52.4859 52.9136 51.9398 52.504 51.3255 52.6406L44.4315 54.0057C43.8172 54.1422 43.4076 54.6883 43.5441 55.3026C43.6124 55.7804 44.0902 56.19 44.6363 56.19Z" fill="black"/>
<path d="M44.6363 61.4458C44.7045 61.4458 44.7728 61.4458 44.841 61.4458L51.7351 60.0807C52.3494 59.9442 52.7589 59.3981 52.6224 58.7838C52.4859 58.1695 51.9398 57.7599 51.3255 57.8964L44.4315 59.2616C43.8172 59.3981 43.4076 59.9442 43.5441 60.5585C43.6124 61.1045 44.0902 61.4458 44.6363 61.4458Z" fill="black"/>
<path d="M44.6363 66.7016C44.7045 66.7016 44.7728 66.7016 44.841 66.7016L51.7351 65.3364C52.3494 65.1999 52.7589 64.6538 52.6224 64.0395C52.4859 63.4252 51.9398 63.0156 51.3255 63.1522L44.4315 64.5173C43.8172 64.6538 43.4076 65.1999 43.5441 65.8142C43.6124 66.3603 44.0902 66.7016 44.6363 66.7016Z" fill="black"/>
<path d="M40.1313 37.8286C45.032 37.8286 49.0048 33.8558 49.0048 28.955C49.0048 24.0543 45.032 20.0815 40.1313 20.0815C35.2306 20.0815 31.2578 24.0543 31.2578 28.955C31.2578 33.8558 35.2306 37.8286 40.1313 37.8286Z" fill="black"/>
<path d="M40.1314 16.1909C41.087 16.1909 41.9061 15.3718 41.9061 14.4162V9.7747C41.9061 8.81909 41.087 8 40.1314 8C39.1758 8 38.3567 8.81909 38.3567 9.7747V14.4162C38.3567 15.3718 39.1758 16.1909 40.1314 16.1909Z" fill="black"/>
<path d="M46.5475 17.8972C46.8206 18.0338 47.1619 18.1703 47.4349 18.1703C48.0492 18.1703 48.6635 17.829 49.0048 17.2829L51.3256 13.2557C51.8034 12.4366 51.5304 11.3445 50.643 10.7984C49.8239 10.3206 48.7318 10.5937 48.1857 11.481L45.865 15.5082C45.3872 16.3273 45.6602 17.4194 46.5475 17.8972Z" fill="black"/>
<path d="M31.326 17.283C31.6673 17.829 32.2816 18.1703 32.8959 18.1703C33.169 18.1703 33.5103 18.1021 33.7833 17.8973C34.6024 17.4195 34.9437 16.3274 34.4659 15.44L32.1451 11.4128C31.6673 10.5937 30.5752 10.2524 29.6878 10.7302C28.8687 11.208 28.5274 12.3002 29.0053 13.1875L31.326 17.283Z" fill="black"/>
</svg>
