<svg width="169" height="61" viewBox="0 0 169 61" fill="none" xmlns="http://www.w3.org/2000/svg">
<g clip-path="url(#clip0)">
<path fill-rule="evenodd" clip-rule="evenodd" d="M4.80854 54.5687L5.60996 54.2682C5.20925 53.2666 4.20747 52.6656 2.90516 52.5654C1.20213 52.5654 0.200356 53.4669 0.200356 54.6689C0.200356 56.0729 1.48153 56.5744 2.66244 57.0366C3.67194 57.4318 4.60818 57.7983 4.60818 58.6754C4.60818 59.5768 4.00711 59.9775 2.90516 59.9775C2.00356 59.9775 1.30231 59.5768 1.00178 58.7755L0 59.076C0.400711 60.1778 1.50267 60.879 3.00534 60.879C4.70836 60.879 5.81031 60.0777 5.81031 58.6754C5.81031 57.2539 4.49706 56.7277 3.30419 56.2497C2.31167 55.852 1.40249 55.4877 1.40249 54.6689C1.40249 53.9677 1.8032 53.5671 3.00534 53.5671C3.80676 53.5671 4.508 53.8676 4.80854 54.5687ZM12.7226 54.6689L13.6242 54.3684C13.3237 53.3668 12.2217 52.6657 10.9194 52.6657C9.016 52.6657 7.91405 53.6673 7.91405 55.3701V58.1746C7.91405 59.6771 9.11618 60.7789 10.9194 60.7789C12.3219 60.7789 13.3237 60.2781 13.6242 59.0761L12.7226 58.7756C12.5222 59.6771 11.9212 59.9776 11.0196 59.9776C9.81743 59.9776 9.21636 59.2764 9.21636 58.1746V55.3701C9.21636 54.2683 9.81743 53.5671 11.0196 53.5671C11.9212 53.5671 12.5222 53.9678 12.7226 54.6689ZM17.4309 52.7659V56.2716H20.9372V52.7659H22.2395V60.7789H20.9372V57.1731H17.4309V60.7789H16.1286V52.7659H17.4309ZM31.3556 58.1746V55.3701C31.3556 53.6673 30.2537 52.6657 28.2501 52.6657C26.1464 52.6657 25.0444 53.6673 24.9443 55.3701V58.1746C24.9443 59.8774 26.0462 60.879 28.15 60.879C30.2537 60.879 31.3556 59.8774 31.3556 58.1746ZM28.2501 53.5671C29.5524 53.5671 30.1535 54.1681 30.1535 55.3701V58.0745C30.1535 59.3766 29.5524 59.9776 28.2501 59.9776C26.9478 59.9776 26.3468 59.3766 26.3468 58.1746V55.3701C26.3468 54.1681 26.9478 53.5671 28.2501 53.5671ZM40.2715 55.3701V58.1746C40.2715 59.8774 39.1695 60.879 37.0658 60.879C34.9621 60.879 33.8601 59.8774 33.8601 58.1746V55.3701C33.8601 53.6673 35.0623 52.6657 37.0658 52.6657C39.1695 52.6657 40.2715 53.6673 40.2715 55.3701ZM38.9692 55.3701C38.9692 54.1681 38.3681 53.5671 37.0658 53.5671C35.7635 53.5671 35.1624 54.1681 35.1624 55.3701V58.1746C35.1624 59.3766 35.7635 59.9776 37.0658 59.9776C38.3681 59.9776 38.9692 59.3766 38.9692 58.0745V55.3701ZM44.2786 59.8775V52.7659H43.0765V60.7789H47.9852V59.8775H44.2786ZM60.5074 55.3701V58.1746C60.5074 59.8774 59.4055 60.879 57.3017 60.879C55.198 60.879 54.096 59.8774 54.096 58.1746V55.3701C54.1962 53.6673 55.2982 52.6657 57.3017 52.6657C59.4055 52.6657 60.5074 53.6673 60.5074 55.3701ZM59.3053 55.3701C59.3053 54.1681 58.7042 53.5671 57.4019 53.5671C56.0996 53.5671 55.4985 54.1681 55.4985 55.3701V58.1746C55.4985 59.3766 56.0996 59.9776 57.4019 59.9776C58.7042 59.9776 59.3053 59.3766 59.3053 58.0745V55.3701ZM68.6218 53.6674V52.7659H63.3124V60.7789H64.6147V57.1731H68.0208V56.3718H64.6147V53.6674H68.6218ZM81.0439 55.1698C81.0439 56.7724 80.1423 57.6739 78.4393 57.6739H76.5359V60.7789H75.3337V52.7659H78.4393C80.1423 52.7659 81.0439 53.6674 81.0439 55.1698ZM76.5359 56.7724H78.3391C79.3409 56.7724 79.8417 56.2716 79.8417 55.1698C79.8417 54.068 79.441 53.5672 78.3391 53.5672H76.5359V56.7724ZM89.8595 58.1747V52.7659H88.457V58.2749C88.457 59.4768 87.7558 59.9776 86.5536 59.9776C85.5519 59.9776 84.6503 59.577 84.6503 58.2749V52.7659H83.4481V58.2749C83.4481 59.8775 84.6503 60.8791 86.6538 60.8791C88.7576 60.8791 89.8595 59.8775 89.8595 58.1747ZM96.9721 56.5721C98.1743 56.7724 98.7753 57.4736 98.7753 58.4752C98.7753 59.9776 97.9739 60.7789 95.9704 60.7789H92.8648V52.7659H95.6698C97.473 52.7659 98.3746 53.5672 98.3746 54.7692C98.2745 55.7708 97.8737 56.2716 96.9721 56.5721ZM94.067 56.1714H95.6698C96.7718 56.1714 97.1725 55.6706 97.1725 54.8693C97.1725 54.068 96.7718 53.6674 95.6698 53.6674H94.067V56.1714ZM94.067 59.8775H95.8702C96.9721 59.8775 97.473 59.4768 97.473 58.375C97.473 57.3734 96.9721 56.9727 95.8702 56.9727H94.067V59.8775ZM102.582 59.8775V52.7659H101.38V60.7789H106.289V59.8775H102.582ZM110.095 52.7659H108.893V60.7789H110.095V52.7659ZM118.009 54.6689L118.911 54.3684C118.611 53.3668 117.509 52.6657 116.206 52.6657C114.303 52.6657 113.201 53.6673 113.201 55.3701V58.1746C113.201 59.6771 114.403 60.7789 116.206 60.7789C117.609 60.7789 118.611 60.2781 118.911 59.0761L118.009 58.7756C117.809 59.6771 117.208 59.9776 116.306 59.9776C115.104 59.9776 114.503 59.2764 114.503 58.1746V55.3701C114.503 54.2683 115.104 53.5671 116.306 53.5671C117.208 53.5671 117.809 53.9678 118.009 54.6689ZM131.333 55.1697C131.333 56.6722 130.432 57.5737 128.729 57.5737H126.825V60.6787H125.623V52.6657H128.729C130.331 52.7658 131.333 53.6673 131.333 55.1697ZM126.725 56.7723H128.528C129.53 56.7723 130.031 56.2715 130.031 55.1697C130.031 54.0679 129.63 53.5671 128.528 53.5671H126.725V56.7723ZM139.948 58.1746V55.3701C139.948 53.6673 138.746 52.6657 136.743 52.6657C134.639 52.6657 133.537 53.6673 133.537 55.3701V58.1746C133.537 59.8774 134.639 60.879 136.743 60.879C138.846 60.879 139.948 59.8774 139.948 58.1746ZM136.743 53.5671C138.045 53.5671 138.646 54.1681 138.646 55.3701V58.0745C138.646 59.3766 138.045 59.9776 136.743 59.9776C135.44 59.9776 134.839 59.3766 134.839 58.1746V55.3701C134.839 54.1681 135.44 53.5671 136.743 53.5671ZM143.956 52.7659V59.8775H147.662V60.7789H142.753V52.7659H143.956ZM150.267 52.7659H151.469V60.7789H150.267V52.7659ZM160.285 54.3684L159.283 54.6689C159.082 53.9678 158.481 53.5671 157.58 53.5671C156.378 53.5671 155.777 54.2683 155.777 55.3701V58.1746C155.777 59.2764 156.378 59.9776 157.58 59.9776C158.481 59.9776 159.082 59.6771 159.283 58.7756L160.184 59.0761C159.884 60.2781 158.882 60.7789 157.48 60.7789C155.676 60.7789 154.474 59.6771 154.474 58.1746V55.3701C154.474 53.6673 155.576 52.6657 157.48 52.6657C158.882 52.6657 159.884 53.3668 160.285 54.3684ZM166.095 60.7789V58.0745L169 52.7659H167.598L165.494 57.0729H165.394L163.29 52.7659H161.887L164.793 58.0745V60.7789H166.095Z" fill="#00B1DB"/>
<path d="M169 45.9617C169 45.9617 132.882 33.0713 84.5966 33.0713C36.1419 33.0713 0 45.9617 0 45.9617C0 45.9617 36.0453 37.6578 84.5 37.6578C132.786 37.6578 169 45.9617 169 45.9617Z" fill="#00B1DB"/>
<path fill-rule="evenodd" clip-rule="evenodd" d="M62.5543 29.112C61.1057 29.6672 55.4562 30.319 52.2694 30.15C40.874 29.5706 35.804 24.4531 35.804 14.8939C35.804 4.94856 43.747 0 54.8527 0C57.2911 0 61.2505 0.458647 62.6508 1.01385L60.4055 7.4349C58.8121 6.90384 55.577 6.61417 54.563 6.61417C48.31 6.61417 43.1434 8.95568 43.1434 14.6284C43.1434 20.4218 47.7305 23.6565 54.7561 23.3668C56.4944 23.2944 59.3191 22.9565 60.8643 22.4978L62.5543 29.112ZM93.4813 10.6937H93.3364L86.4798 28.0016H80.8304L73.9255 10.6937H73.829L72.6943 28.4602H66.0067L67.4552 0H77.1848L83.5827 16.7768H83.7275L90.1012 0H99.8308L101.304 28.4602H94.2297L93.4813 10.6937ZM112.361 17.5251V0H104.346V17.9355C104.346 26.5049 109.585 30.2707 118.493 30.2707C127.716 30.2707 133.22 26.3118 133.22 18.0079V0H125.253V17.5251C125.253 22.2564 122.96 24.5014 118.759 24.5014C114.655 24.5014 112.361 22.1599 112.361 17.5251Z" fill="#00B1DB"/>
</g>
<defs>
<clipPath id="clip0">
<path d="M0 0H169V61H0V0Z" fill="white"/>
</clipPath>
</defs>
</svg>
