<svg width="115" height="35" viewBox="0 0 229 70" fill="none" xmlns="http://www.w3.org/2000/svg">
<g clip-path="url(#clip0_1_6)">
<path d="M175.39 15.4C179.643 15.4 183.09 11.9526 183.09 7.7C183.09 3.44741 179.643 0 175.39 0C171.137 0 167.69 3.44741 167.69 7.7C167.69 11.9526 171.137 15.4 175.39 15.4Z" fill="white"/>
<path d="M164.5 68.49V59.75L167.36 59.1C168.01 59.03 168.15 58.81 168.15 58.1V30.14C168.15 29.57 168.01 29.35 167.36 29.14L164.5 28.43V19.74H186.29V28.49L183.42 29.21C182.78 29.42 182.63 29.64 182.63 30.21V58.14C182.63 58.78 182.78 58.93 183.35 59.14L186.29 59.93V68.53L164.5 68.49Z" fill="white"/>
<path d="M124.83 68.49L112.68 30.03C112.638 29.8636 112.546 29.7138 112.418 29.5997C112.29 29.4857 112.13 29.4126 111.96 29.39L108.17 28.75V19.88H132.69V28.75L129.83 29.61C129.553 29.6464 129.299 29.7821 129.115 29.9918C128.932 30.2016 128.83 30.471 128.83 30.75C128.879 31.551 129.023 32.3433 129.26 33.11L134.48 53.7H134.83L140.03 33.14C140.259 32.3714 140.403 31.58 140.46 30.78C140.443 30.4948 140.327 30.2244 140.132 30.0161C139.936 29.8077 139.674 29.6746 139.39 29.64L136.6 28.78V19.91H160.48V28.71L156.55 29.49C156.372 29.5258 156.209 29.6132 156.081 29.7413C155.953 29.8694 155.866 30.0324 155.83 30.21L144.04 68.52L124.83 68.49Z" fill="white"/>
<path d="M191.16 64.98C191.207 60.5452 191.521 56.1172 192.1 51.72H203.83L204.98 57.31C206.483 57.8147 208.055 58.0813 209.64 58.1C212.36 58.1 214.15 56.88 214.15 54.94C214.15 52.51 211.07 51.58 207.41 50.5C200.1 48.28 191.36 45.41 191.36 34.08C191.36 22.75 198.81 19.03 210.07 19.03C217.24 19.03 221.9 20.89 226.91 23.26C226.982 27.454 226.721 31.6472 226.13 35.8H214.39L213.82 30.86C212.684 30.3819 211.463 30.137 210.23 30.14C207.58 30.14 205.86 30.78 205.86 32.86C205.86 35.3 209.16 36.74 212.74 37.95C219.74 40.24 228.66 43.4 228.66 53.8C228.66 64.2 222.06 69.28 209.59 69.28C203.203 69.2402 196.905 67.7709 191.16 64.98Z" fill="white"/>
<path d="M28.67 19.88V28.73L32.18 29.73C33.64 30.12 33.62 30.87 32.86 33.14L26.06 53.75H25.57L20.32 33.14C19.73 30.94 19.74 30.02 21 29.73L24.73 28.73V19.88H0V28.73L4 29.51C4.39 29.61 4.48 29.8 4.58 30.19L16.58 68.49H33.83L39.83 48.14L45.83 68.46H63.13L75.13 30.16C75.1759 29.9926 75.2646 29.84 75.3873 29.7173C75.51 29.5946 75.6626 29.5059 75.83 29.46L79.7 28.7V19.85H54.99V28.7L58.72 29.7C59.99 29.99 59.99 30.91 59.4 33.11L54.15 53.72H53.67L46.83 33.14C46.08 30.87 46.05 30.14 47.51 29.73L51.02 28.73V19.88H28.67Z" fill="white"/>
<path d="M91.01 46.53H97.48V44.69C97.48 42.69 96.34 41.63 94.28 41.63C92.22 41.63 91.01 42.7 91.01 44.69V46.53ZM77.22 54.92V45.54C77.22 36.94 83.9 31.25 94 31.25C104.1 31.25 110.77 36.94 110.77 45.54V53.54H91.01V55.46C91.01 57.52 93.43 58.87 96.01 58.87C98.59 58.87 101.13 57.73 101.55 55.96H110.72V62.96C107.03 67.3 101.41 69.22 95.58 69.22C84.62 69.21 77.22 63.52 77.22 54.92Z" fill="white"/>
</g>
<defs>
<clipPath id="clip0_1_6">
<rect width="228.66" height="69.28" fill="white"/>
</clipPath>
</defs>
</svg>
